<svg width="167" height="146" viewBox="0 0 167 146" fill="none" xmlns="http://www.w3.org/2000/svg">
<path d="M131.325 0.301116C131.105 0.29604 130.725 0.527977 130.905 0.736262L131.671 0.601942L131.325 0.301116Z" fill="black"/>
<path d="M130.727 2.50721C131.184 2.64879 131.922 2.74172 132.49 2.29184C131.694 2.27917 131.945 2.09201 131.018 2.12046C130.834 1.91342 131.065 1.59968 131.336 1.53061C131.122 1.51944 131.327 1.08153 130.838 1.14067C130.436 1.69516 130.577 2.0946 131.199 2.32872C131.083 2.4856 130.865 2.47205 130.727 2.50721Z" fill="black"/>
<path d="M133.585 27.4616L133.684 27.3077C133.633 27.3452 133.6 27.4006 133.585 27.4616Z" fill="black"/>
<path d="M130.492 42.6237C130.507 42.5052 130.451 42.4357 130.387 42.4134C130.404 42.5328 130.422 42.6316 130.492 42.6237Z" fill="black"/>
<path d="M128.897 44.8701C128.937 44.8243 128.963 44.7835 128.997 44.7437C128.913 44.7768 128.855 44.8168 128.897 44.8701Z" fill="black"/>
<path d="M133.585 27.4605L133.323 27.8627C133.573 27.9062 133.521 27.6609 133.585 27.4605Z" fill="black"/>
<path d="M133.702 5.2208C133.636 5.1466 133.546 5.09674 133.437 5.06159C133.495 5.1226 133.544 5.18252 133.585 5.24488C133.623 5.23606 133.653 5.22974 133.702 5.2208Z" fill="black"/>
<path d="M132.972 20.6523L132.966 20.5297C132.879 20.4993 132.773 20.4716 132.655 20.4439L132.972 20.6523Z" fill="black"/>
<path d="M132.329 15.5067C132.322 15.6263 132.963 15.5753 133.25 15.5772C132.978 15.5497 132.837 15.4812 132.773 15.3864C132.652 15.3997 132.507 15.4373 132.329 15.5067Z" fill="black"/>
<path d="M131.61 7.17451C131.569 7.13669 131.528 7.09885 131.483 7.06227C131.524 7.08814 131.567 7.14149 131.61 7.17451Z" fill="black"/>
<path d="M132.924 24.3708C132.83 24.3789 132.743 24.3966 132.694 24.4177C132.775 24.4181 132.853 24.3992 132.924 24.3708Z" fill="black"/>
<path d="M31.4057 118.365C31.4065 118.321 31.3966 118.293 31.3915 118.255C31.3698 118.318 31.3634 118.368 31.4057 118.365Z" fill="black"/>
<path d="M24.8683 115.798L24.9516 115.757C24.9504 115.636 24.9527 115.514 24.9442 115.395L24.8683 115.798Z" fill="black"/>
<path d="M126.438 49.0064C126.447 48.9991 126.451 48.9979 126.456 48.9919C126.436 48.8513 126.42 48.9206 126.438 49.0064Z" fill="black"/>
<path d="M99.9659 83.5276C100.719 83.6517 99.798 84.623 100.792 84.6361C100.581 84.4825 100.685 83.413 99.9659 83.5276Z" fill="black"/>
<path d="M133.668 5.37989C133.7 5.45022 133.729 5.52184 133.749 5.59229C133.735 5.49133 133.711 5.4221 133.668 5.37989Z" fill="black"/>
<path d="M100.791 84.6321L100.792 84.6358L100.892 84.6299C100.852 84.6315 100.827 84.6318 100.791 84.6321Z" fill="black"/>
<path d="M121.772 58.9066C121.882 58.9454 121.977 58.9529 122.071 58.9568C122.013 58.9284 121.93 58.9087 121.772 58.9066Z" fill="black"/>
<path d="M126.482 52.0987L126.318 52.2491C126.406 52.1982 126.449 52.1466 126.482 52.0987Z" fill="black"/>
<path d="M120.214 62.9993C120.111 63.0631 120.016 63.0471 120.004 63.2211C120.039 63.2292 120.067 63.2277 120.094 63.2262C120.053 63.1312 120.061 63.0479 120.214 62.9993Z" fill="black"/>
<path d="M117.598 66.6444C117.65 66.6548 117.701 66.653 117.751 66.6561C117.769 66.6137 117.792 66.5651 117.81 66.5227L117.598 66.6444Z" fill="black"/>
<path d="M45.3623 115.677C45.224 115.522 45.1168 115.34 45.0266 115.161C45.1956 115.593 44.563 115.908 45.3623 115.677Z" fill="black"/>
<path d="M133.359 5.33928C133.521 5.31596 133.612 5.32467 133.669 5.38207C133.644 5.33402 133.616 5.28722 133.585 5.24527C133.49 5.2619 133.402 5.28816 133.359 5.33928Z" fill="black"/>
<path d="M124.309 66.026L123.806 66.6001C123.982 66.4627 124.159 66.2479 124.309 66.026Z" fill="black"/>
<path d="M76.871 104.526L76.7518 104.667C76.8149 104.653 76.8611 104.613 76.871 104.526Z" fill="black"/>
<path d="M122.575 68.4662C122.311 68.4398 122.121 68.4768 121.967 68.5461C121.99 68.6028 122 68.6559 122.049 68.716L122.575 68.4662Z" fill="black"/>
<path d="M40.5342 117.63C41.2363 117.51 40.7079 116.75 40.7682 116.244C41.5473 115.843 41.2677 116.78 41.6339 117.151C42.1129 116.828 42.3559 115.985 42.7458 115.943C42.8027 116.073 42.8876 116.109 42.8351 116.297C43.2431 115.522 44.4572 115.96 44.9006 114.971C44.9629 115.034 45.0047 115.097 45.0294 115.157C44.8347 114.767 44.7265 114.348 44.6824 114.044C44.9837 113.956 45.1316 113.388 45.3651 113.902C45.1732 113.931 45.2079 114.15 45.1567 114.341L45.4256 114.031C45.8882 114.74 45.0486 114.403 45.1775 114.977C45.7512 114.577 46.328 113.764 46.8571 113.869C47.1374 114.601 45.7951 114.388 46.593 114.91L45.7811 114.793C46.6242 115.857 45.3075 114.815 46.1226 115.973C47.1605 115.959 47.1374 115.328 48.1717 115.316C48.2915 114.842 47.9471 114.71 48.0633 114.238C49.2599 113.159 49.6371 115.874 50.4016 114.597C50.5349 114.021 50.3801 113.044 51.2339 113.352L51.2176 114.267C52.1851 114.096 51.4217 112.899 52.5643 113.201C52.481 113.581 51.9019 113.684 52.0729 113.746C52.8984 114.242 52.3908 113.144 52.8813 113.007L53.1955 113.731C54.1743 113.358 55.0983 112.45 56.1535 111.982C56.1631 112.221 56.0451 112.512 56.3717 112.662C57.0094 112.261 57.7553 112.056 58.5313 111.951C59.3036 111.834 60.0961 111.8 60.8404 111.79L61.126 110.977C61.2477 110.943 61.4447 111.186 61.3618 111.356C61.9642 111.415 61.2478 110.943 61.4076 110.609C61.6841 110.461 61.9234 110.839 61.8051 111.094C62.167 110.667 62.7108 110.156 63.3101 109.784C63.9045 109.397 64.5583 109.16 65.1605 109.313L65.047 109.57C65.8854 109.54 65.3779 107.961 66.2887 108.282L66.2032 108.444C67.9184 108.12 69.3989 106.774 71.0092 107.202C70.8472 106.215 72.7515 106.933 72.2917 105.645C73.4501 105.84 73.2963 106.18 74.741 105.997C75.1026 105.897 74.8823 104.999 75.2284 104.678L75.5427 105.309L75.7837 104.378L76.4497 104.997L76.7593 104.652C76.5856 104.687 76.2939 104.521 76.2267 104.326C76.6937 103.769 77.8975 104.038 78.0771 104.36L79.2128 103.104C79.3133 103.372 79.122 103.58 79.017 103.838C79.4395 102.812 79.4954 104.429 79.8825 103.488C79.7159 103.391 79.7371 103.089 79.6898 102.952C80.2284 103.154 81.0186 102.761 81.5059 102.298L81.6267 102.79C82.7158 102.326 83.6817 101.375 84.8416 100.741C84.3163 100.777 83.9955 99.986 84.2915 99.7305L84.7962 100.304C84.7826 99.7837 84.3062 100.255 84.4681 99.516C84.9378 99.3543 85.1795 100.092 85.0537 100.442L85.4463 99.9269C85.5882 100.104 85.5245 100.272 85.6358 100.537C85.6211 100.024 86.906 100.657 86.8054 99.7782L86.9462 99.9521C88.0827 99.2738 88.4617 98.7431 89.3622 98.1542C89.0401 97.5942 89.4767 97.5004 89.4695 96.8926C90.2369 96.6446 91.2429 96.5852 92.0107 96.0217C92.3948 95.3883 91.8734 95.4587 91.9134 94.9762C92.2757 95.4415 93.0388 94.8756 92.8636 95.4937C93.3157 95.14 93.6023 94.916 93.8968 94.6327C94.184 94.3399 94.4692 93.983 94.9212 93.3707C94.6579 93.2633 94.4526 93.2773 94.4143 93.0602C94.5703 92.8326 95.0377 92.9224 95.1683 93.1724L95.146 93.2609C95.5524 92.4339 96.5561 92.25 97.5124 92.046C98.4699 91.8456 99.3494 91.5831 99.4992 90.7152L99.4784 90.8073L100.159 89.4978C100.71 89.2071 100.135 90.0721 100.721 90.0844C101.249 88.4151 102.603 88.7777 103.122 87.5278C104.024 87.9044 104.637 87.3497 105.227 86.7143C105.822 86.0848 106.372 85.3459 107.205 85.3461L106.881 85.0859C106.857 84.5725 107.329 85.0041 107.569 84.9135C107.334 84.6995 107.065 84.8689 107.068 84.5728C108.788 82.4205 111.61 81.2023 113.864 79.4399C114.658 78.7626 112.746 77.5537 114.337 77.2927L114.636 78.0788C114.828 77.544 115.109 77.0917 115.433 76.6728C115.747 76.2455 116.102 75.8564 116.462 75.4698C116.822 75.0832 117.184 74.7038 117.507 74.2898C117.819 73.871 118.083 73.4164 118.258 72.9035C118.317 73.1096 118.485 73.2577 118.355 73.4076C119.053 73.4297 119.395 72.2047 119.049 71.9156C119.293 71.7066 119.409 72.1151 119.715 72.1109C120.25 71.9872 119.836 70.8202 120.411 70.9861C120.504 71.0106 120.478 71.1933 120.459 71.2805C120.423 70.893 121.321 70.2847 120.655 70.11C121.362 69.6885 121.334 68.797 121.984 68.5247C121.644 67.7849 123.027 67.6685 122.288 66.9773C123.093 67.6256 123.768 66.3827 123.621 65.6977C123.79 66.0115 124.122 65.5332 124.374 65.9356C124.669 65.4662 124.794 64.9381 124.296 64.7219C125.094 64.6451 125.174 64.0799 125.251 63.5885C125.324 63.0948 125.387 62.6688 126.217 62.8479C126.409 61.9977 126.631 61.21 126.855 60.4537C127.064 59.6867 127.293 58.9654 127.546 58.268C128.425 58.814 126.84 59.7276 127.811 60.2135C128.126 58.7675 127.772 57.6688 128.604 56.5536C128.893 56.3006 128.911 56.9409 129.01 57.1333C129.267 55.6951 130.343 54.7709 130.333 53.3921C130.42 53.4348 130.458 53.6036 130.476 53.7509C130.549 53.5157 130.854 53.2976 130.414 53.1255L130.43 53.3948C129.652 53.4568 129.536 51.9245 129.224 51.7451C130.281 52.6664 130.037 50.7859 131.325 52.0602C131.311 51.8791 131.192 51.6048 130.886 51.5123C131.06 51.3269 131.255 51.3287 131.494 51.6949C131.591 50.7804 131.014 50.8742 131.321 50.1461C131.529 50.2359 131.552 50.4181 131.766 50.5949C131.51 50.0524 131.245 49.5173 131.675 48.9692C131.786 49.0563 131.982 49.0495 131.904 49.234C131.995 48.96 132.021 48.6842 132.015 48.4075C131.999 48.1261 131.96 47.8486 131.933 47.5709C131.881 47.0191 131.89 46.4825 132.302 45.9648C133.114 46.6347 132.753 45.6679 133.585 45.8785C133.583 45.6368 133.577 45.3963 133.558 45.1524L133.082 45.284C133.267 44.7191 132.822 44.0358 133.237 43.6341L133.445 44.1565L133.609 43.0492L133.117 43.5544C132.866 42.8608 132.06 43.3038 132.515 42.6298C132.554 42.8022 132.693 42.0793 133.266 41.9226C133.266 41.9226 133.266 41.9226 133.267 41.9263C133.076 41.5716 132.872 41.2135 133.183 40.8479C133.476 40.8076 134.076 41.175 134.269 41.149C133.647 40.6923 134.416 39.7566 133.761 39.2301C133.904 39.387 134.343 39.4987 134.442 39.4808L133.936 39.1136C134.182 38.8912 134.281 38.8733 134.619 38.9957C134.896 38.2171 133.508 39.0103 134.162 38.1627C134.192 38.2494 134.286 38.2292 134.338 38.4051C134.773 37.4957 134.352 36.4847 134.809 35.6645C135.71 35.5565 134.861 36.4713 135.636 36.3053C135.702 35.6521 135.528 34.936 135.423 34.2446C135.314 33.5508 135.249 32.8818 135.437 32.2757C135.398 32.3498 135.354 32.4216 135.31 32.4934C134.135 32.1702 136.007 31.643 135.507 30.9422C135.58 31.107 136.156 31.2197 136.026 31.1594C136.168 30.7386 136.14 30.2918 136.047 29.7864C135.962 29.2821 135.775 28.7159 135.616 28.0553L135.921 28.2372C136.226 27.7484 136.153 26.9128 136.326 26.3721C136.023 26.1975 136.09 25.8874 135.626 26.0636C136.542 25.2509 136.29 24.4245 136.022 23.6476C135.884 23.2587 135.745 22.8781 135.716 22.5002C135.679 22.1211 135.768 21.7468 136.118 21.3554C136.131 21.5329 136.411 21.7718 136.406 21.6281L136.055 20.3627C135.531 20.4947 135.743 20.5471 135.344 20.8338C135.024 20.6895 134.762 20.3513 134.748 20.0408C135.124 20.5821 135.597 19.9829 135.881 19.7154C135.721 19.7666 135.539 19.6959 135.376 19.7277C136.28 18.9961 134.318 19.6958 134.863 18.7563L135.147 18.7801C134.971 18.4567 134.574 18.1851 134.614 17.8197C135.207 17.6072 134.936 18.1453 135.441 18.1209C135.354 17.6094 134.185 17.244 134.743 16.7164C134.935 16.9091 134.969 17.2205 135.158 17.418C135.823 16.8374 135.635 16.7933 135.707 16.4047L135.696 16.4447C135.782 16.1405 135.846 15.8353 135.904 15.5327L135.747 15.7807C134.064 15.3659 135.252 14.5204 134.084 13.8394C135.191 14.4968 134.672 13.8796 135.365 13.8269C135.521 13.5752 135.679 13.2014 135.886 13.2634C135.578 13.1069 135.658 12.9176 135.704 12.7117C135.742 12.5047 135.739 12.2836 135.276 12.0791C135.491 12.0093 135.202 11.64 135.772 11.6174C135.484 11.1224 135.419 11.8239 135.135 11.8327C134.675 11.5061 134.795 10.9877 134.874 10.419C134.914 10.1346 134.939 9.8431 134.878 9.56092C134.806 9.28247 134.636 9.02184 134.301 8.80158C133.608 7.92503 132.833 7.95328 132.224 7.16895C132.479 6.76159 133.072 7.17994 133.072 7.17994C133.26 6.58594 133.063 6.2374 132.663 5.86189C132.879 5.89238 133.004 5.74859 133.193 5.52556C133.008 5.17332 132.338 5.54124 132.482 4.95009C132.745 4.95233 133.161 4.92647 133.458 5.02626C133.111 4.65264 132.567 4.36309 132.222 3.98461C132.546 3.72764 132.872 4.05201 133.168 4.12402C132.996 3.8961 132.796 3.59709 132.565 3.3613C132.317 3.13172 132.031 2.97143 131.716 3.00716L131.641 3.40062C131.539 3.23365 132.097 3.11458 132.258 3.20846C132.887 3.46087 132.284 3.90668 132.085 4.00774L131.839 3.74071C130.723 4.52513 132.477 4.93564 132.634 5.61325L131.637 5.65329L132.615 6.05204C132.427 6.2702 131.954 6.52622 131.708 6.25916C131.412 6.85423 132.174 6.55553 131.796 7.10185C131.731 7.16897 131.68 7.16222 131.633 7.13367L132.03 7.49835C131.813 7.46786 131.406 7.76551 131.461 7.4556C131.156 8.40121 132.511 8.54497 131.898 9.03924L131.823 8.98799C132.446 10.0103 132.527 8.90739 133.559 9.54616C133.059 9.87617 132.546 10.2063 132.023 10.5317L132.729 10.4788C132.73 10.5996 132.729 10.8425 132.446 10.867C133.006 11.1914 132.728 10.7217 133.221 10.8752C132.723 11.5761 133.853 12.371 132.788 12.7175C133.356 12.817 133.072 12.0984 133.566 12.6276C132.996 12.8278 133.085 12.9913 133.259 13.1817C133.423 13.3759 133.678 13.5993 133.448 13.9049C132.812 13.8532 133.058 13.3118 132.596 13.9194C133.676 14.0526 132.529 14.9569 132.792 15.3471C133.611 15.2472 133.312 16.235 133.642 16.9338C133.359 16.9221 133.327 18.3678 133.099 19.0649L132.958 19.0567C133.382 19.0887 133.582 19.2825 133.683 19.5305C133.782 19.7833 133.802 20.0877 133.901 20.3405C133.396 20.3527 133.194 20.2688 132.956 20.0114L132.982 20.4872C133.257 20.5824 133.407 20.7247 133.518 21.0342L132.885 20.945C132.917 21.2613 133.117 21.5723 133.263 21.9141C133.408 22.2522 133.507 22.6222 133.286 23.0377C133.875 23.0815 134.926 22.3399 135.313 23.2292C134.994 23.2662 134.453 23.303 134.322 23.0771C134.364 23.1516 134.585 23.3464 134.447 23.4988L133.916 23.1524C133.679 23.533 134.362 23.3461 134.31 23.6512C133.857 23.6496 133.987 23.8755 133.625 23.8344C133.582 23.7562 133.814 23.5715 133.636 23.4549C133.555 23.794 133.285 24.2063 132.942 24.3366C133.199 24.3086 133.553 24.3403 133.61 24.5874C133.642 25.2312 133.065 24.7995 132.831 25.1667C133.145 25.3256 132.818 25.7251 133.495 25.7547C133.482 25.9409 133.163 25.9658 132.976 26.0341C133.255 26.3745 132.978 27.5774 133.716 27.2426L133.768 27.1599C133.782 27.1755 133.781 27.196 133.795 27.2152C133.794 27.2116 133.795 27.2152 133.794 27.2116L133.795 27.2152C134.103 27.7801 133.976 28.3494 133.802 28.9022C133.601 29.4564 133.351 29.9991 133.442 30.5541L133.215 30.5309C133.397 31.1998 133.237 31.9785 133.635 32.5002C133.604 32.6927 133.155 32.8916 132.9 32.7733C132.995 33.2824 133.235 33.3815 132.758 34.0267C132.443 33.4763 132.386 34.1428 132.549 33.4801C132.261 34.0848 131.882 34.1586 132.386 34.9427C132.119 34.7762 131.919 34.8652 131.803 35.0343C131.679 35.2023 131.635 35.4481 131.691 35.6107L132.189 35.2493C132.204 35.5996 132.096 35.8834 131.984 36.1685L131.269 35.8649C130.685 36.4097 130.957 37.0476 131.157 37.6534C131.37 38.2592 131.45 38.8094 130.582 39.1043C131.016 39.5653 131.121 38.5105 131.654 38.9536C131.404 39.5204 130.193 39.8527 130.144 40.0272C129.532 40.7027 131.052 41.0563 130.518 41.8059C130.811 41.7777 131.542 41.8695 131.598 42.5699C131.325 43.1284 130.288 42.9563 130.189 42.5295C130.208 42.3855 130.311 42.3421 130.399 42.3763C130.362 42.1627 130.323 41.8852 129.969 42.0313L130.207 42.1836C129.854 42.3901 129.646 43.1812 129.274 42.8647C129.392 43.3699 129.646 43.1813 129.878 42.9035C129.277 43.5185 129.537 44.0513 129.011 44.7054C129.192 44.6347 129.538 44.6289 129.493 44.7453C128.789 45.7275 129.81 45.396 129.657 46.1842C129.116 46.4675 128.779 45.6986 128.842 46.562C128.419 46.9179 128.133 46.4059 127.986 46.1536C128.25 47.0162 127.191 47.272 126.951 47.6091L126.886 47.1868C126.925 47.4402 126.853 47.6065 126.779 47.7776L127.362 47.7827C127.19 47.9512 127.119 48.121 126.912 48.0348C127.156 48.3793 127.818 48.2121 128.099 48.8184C127.733 48.9887 128.029 49.7762 127.328 49.5849C127.906 48.8203 126.621 49.3961 126.809 48.6281C126.832 48.8019 126.76 48.9682 126.588 49.1366C126.502 49.1339 126.461 49.0509 126.445 48.9798C125.521 49.5363 127.049 49.6771 126.649 50.51C126.324 50.2377 125.855 50.3873 125.873 50.5588C126.034 50.2285 126.568 50.6752 126.708 51.1161C126.173 51.5226 126.653 51.8018 126.486 52.0693L126.769 51.8103C127.088 52.0924 126.916 52.3419 126.856 52.7787C126.554 52.6766 126.818 52.3392 126.63 52.416C127.089 53.151 125.518 53.0371 125.654 53.8189C125.274 53.958 124.958 53.5007 124.673 53.6473C124.817 54.5232 123.827 54.0762 123.875 54.9446C124.456 55.0114 124.357 54.9121 124.586 55.6337L124.81 54.3481L125.149 55.4275C125.329 55.0946 125.206 54.5594 125.39 54.4029C125.614 54.9481 125.508 54.8513 125.997 54.8972C125.03 54.9756 125.963 56.0443 125.177 56.307L123.996 55.6468C123.033 56.124 123.827 57.3621 122.961 58.2057L123.347 58C123.543 58.2035 123.471 58.3698 123.348 58.5414C123.219 58.7071 123.043 58.8767 123.04 59.0919C122.67 58.8272 122.407 58.9422 122.08 58.9334C122.378 59.0936 121.611 59.6365 122.324 60.2035L121.547 60.3296C120.858 60.995 122.048 61.9271 121.417 62.6052C121.159 62.1038 120.663 62.2707 120.706 61.573C120.537 61.8212 120.315 61.9985 120.574 62.176C120.241 62.1612 120.616 63.2124 120.103 63.203C120.195 63.422 120.561 63.7242 120.342 63.9898C120.246 63.9702 120.16 63.8624 120.16 63.8624C120.346 63.9923 120.099 64.4695 120.684 64.5145C119.83 64.4891 119.468 65.0341 119.135 65.5812C118.801 66.1247 118.501 66.6847 117.761 66.6364C117.475 67.2483 117.1 67.9675 116.757 68.4615C116.673 68.3487 116.582 68.3194 116.687 68.2591C115.851 68.6481 117.395 69.4824 116.417 69.9162C115.541 69.8258 116.432 69.2804 116.023 69.3364C114.787 68.493 115.451 70.3378 114.376 70.2675L114.405 70.0956C113.712 70.1363 114.084 71.37 113.466 71.8861C113.466 71.8861 113.394 71.7696 113.3 71.733C113.511 72.6385 113.01 73.5788 112.65 74.2929C112.384 73.7215 112.655 73.8264 112.125 73.5319C111.957 73.8405 112.896 74.1032 112.545 74.7169C112.154 74.6616 111.611 74.8325 111.109 74.4435L111.526 73.9524C110.701 73.6342 110.976 74.5741 110.636 74.7237L110.407 74.4468C109.808 75.2309 110.467 75.8891 109.659 76.592L109.928 76.7053C110.145 77.746 109.226 76.6965 109.282 77.5745L108.521 77.0563C108.398 77.4745 108.189 78.6379 107.793 79.2267C107.624 78.4767 107.955 77.6674 108.024 77.0335C107.75 77.2936 107.163 77.9845 107.32 78.4398C107.372 78.2725 107.36 77.9814 107.565 77.9758C107.723 78.8105 107.509 79.482 106.942 79.9928C105.847 78.6199 105.195 81.0227 103.862 80.3579C103.58 81.0411 103.038 81.4259 102.436 81.7786C101.822 82.1194 101.139 82.415 100.582 82.9546C101.877 83.6524 100.26 83.2756 101.224 84.2933C101.001 84.5964 100.881 84.6701 100.799 84.6177C100.341 84.638 99.8732 84.6414 99.4129 84.6544C98.9545 84.497 99.4906 84.1992 99.2636 83.9743C98.5787 84.3798 98.6327 83.7146 97.9938 83.7487C98.3885 84.0735 98.2257 84.4812 97.7568 84.6103L98.6535 84.726C98.2419 85.9953 97.1917 84.4008 96.7581 85.6534L96.7671 85.0925C96.4703 85.6393 95.0911 86.3406 95.3136 87.5855C95.1365 87.5172 94.8031 87.2884 94.9446 87.0538C93.75 87.7157 93.1626 89.7892 91.8942 89.8379L91.7845 89.4958C91.6333 89.7257 91.7886 90.2824 91.3296 90.1818C91.2619 90.0556 91.2199 89.8397 91.1128 89.8928C91.0735 90.072 90.8907 90.7735 90.4957 90.7883L90.5212 90.3107C89.1592 90.6625 89.3326 92.2113 88.5141 93.0266C87.9655 92.1728 86.9257 92.4863 86.3891 92.6064L86.3286 92.4778C84.9421 93.1694 84.5195 94.5475 83.4813 95.6405C82.1592 95.146 80.6122 96.7214 79.0682 96.8853C79.3455 96.9394 79.4135 97.5949 79.2368 97.8093C78.8488 97.7974 78.7371 98.8584 78.3518 98.0211L78.4674 97.9813C77.8153 97.2965 77.3178 97.8234 76.8282 98.0446L77.3056 99.1613C76.2703 98.7014 75.5265 99.2647 74.8565 99.8187C74.1802 100.355 73.5666 100.861 72.8821 100.317C72.7025 100.734 72.3187 100.911 72.1404 101.332L71.8819 100.734C71.4203 100.86 71.0768 100.955 70.7217 101.097C70.3715 101.242 70.0071 101.428 69.4989 101.724L69.5277 101.209C68.9123 101.429 69.5188 103.249 68.9704 103.523L68.4186 102.706C67.8928 102.94 67.278 102.974 66.7137 103.107C66.4292 103.173 66.1582 103.266 65.912 103.42C65.6633 103.566 65.4381 103.769 65.2539 104.079C65.2187 103.942 65.1447 103.668 65.3032 103.565C64.7889 103.738 63.1207 103.706 63.7824 104.877C63.4579 104.075 62.65 105.226 62.1966 105.811L62.0634 105.178C61.859 106.133 61.9178 106.351 61.2975 106.803C61.1039 106.781 60.9792 106.371 61.2531 106.451C60.592 106.327 61.028 107.171 60.2453 107.081L60.3579 106.609C59.7793 106.76 59.8935 106.951 59.7383 107.51C59.464 107.875 58.6107 107.732 58.3433 107.214C58.3819 107.573 58.2217 108.129 57.8322 108.089C57.7179 107.898 57.7961 107.726 57.8363 107.643C56.76 107.557 56.6465 108.801 55.7979 108.414C55.7223 108.218 55.6465 108.127 55.5712 108.084C56.3328 107.866 56.9536 107.709 56.9108 107.772C56.7264 107.213 56.0904 107.303 56.3217 106.379C55.9733 106.951 55.4253 108.13 54.7478 108.052C54.7038 108.007 54.6564 107.962 54.6085 107.882L54.6487 107.799C54.4939 107.784 54.3884 107.877 54.3003 108.008C54.0824 107.974 53.9419 107.942 53.7563 107.989C53.5464 107.544 52.9837 107.952 52.6739 108.027C52.8805 108.639 52.4518 108.661 52.9765 109.058C52.9134 109.027 53.0131 108.965 53.2092 108.877C53.2499 108.843 53.3016 108.817 53.3193 108.774C53.3171 108.791 53.316 108.812 53.3163 108.836C53.5112 108.757 53.769 108.66 54.0616 108.559C53.9168 108.949 53.739 109.289 53.3016 109.051C53.2613 109.498 53.2065 109.961 53.1652 110.181C52.4884 109.436 51.5422 109.188 51.2811 108.688C50.4387 109.293 49.1382 109.519 48.8456 110.852C48.6158 111.077 48.4515 110.6 48.3049 110.444C48.4314 110.284 48.6185 110.252 48.6577 110.06C48.2018 110.52 47.0893 110.564 47.163 111.424C46.3875 111.214 47.3637 110.575 46.456 110.932L46.5209 110.651C45.4434 110.209 44.828 110.91 44.159 111.573C43.4938 112.247 42.7597 112.814 41.5582 112.177C41.7221 112.254 41.8022 112.287 41.8603 112.421C41.2337 112.35 40.6264 112.417 40.0295 112.55C39.4327 112.683 38.8414 112.878 38.2435 113.032C37.0478 113.351 35.8419 113.616 34.5847 113.204C33.8885 113.072 33.8913 113.597 33.5382 114.062L33.2996 113.392L32.7088 114.271C31.7841 114.977 30.7922 112.801 29.6722 114.055L29.8856 114.499C29.4286 114.475 28.483 114.909 28.5043 114.373C28.4665 114.462 28.4042 114.868 28.2049 114.641L28.1578 114.282L27.1075 114.999C26.2235 114.814 27.1149 113.554 25.8646 113.596C25.4168 113.775 24.6229 114.767 24.8137 114.993C25.0034 114.992 25.3121 115.173 25.352 115.535L24.9374 115.763C24.9383 116.833 24.6738 117.955 25.8065 118.603L26.5014 117.887L26.7855 118.384L26.1581 118.474C26.5565 118.927 26.7491 118.477 26.9756 118.161C27.0604 118.43 27.1794 118.612 27.3398 118.702L27.9816 117.62C28.1101 118.029 27.7302 118.475 28.2469 118.66C28.5464 118.157 27.8271 117.758 28.3662 117.399C28.7682 117.85 28.7046 118.252 29.0832 117.803C29.1717 118.071 29.1009 118.253 28.9451 118.388C29.2883 118.023 29.9229 118.164 30.0548 117.573C30.4941 118.121 31.293 117.26 31.373 118.267C31.4636 118.014 31.9347 117.399 32.2722 117.311C31.799 118.589 33.5621 117.218 33.5677 118.526C33.7277 117.957 34.1296 117.787 34.5852 117.666C35.0421 117.549 35.5438 117.457 35.9076 117.094C35.8747 117.186 35.81 117.374 35.7311 117.332C36.2049 117.347 36.3892 117.647 36.7182 117.805C36.6393 116.906 37.3213 116.587 37.6138 115.981C38.3174 116.745 37.4459 117.077 37.7558 117.872C37.611 117.158 38.6185 116.997 38.3216 116.428C38.8434 116.887 38.7368 116.625 39.0857 117.321C38.9671 116.202 39.4568 117.072 39.6899 116.329C40.4095 116.752 40.0394 117.332 40.6571 116.861C41.0693 117.119 40.5342 117.63 40.5342 117.63ZM56.0898 111.785C56.0923 111.792 56.0936 111.796 56.0936 111.796C55.9636 111.853 55.8504 111.9 55.7806 111.932C55.8468 111.901 55.9335 111.859 56.0898 111.785ZM57.4053 111.369C57.2364 111.394 57.0377 111.451 56.8281 111.523C56.7162 111.327 56.6957 111.092 56.8308 111.061C56.8022 111.225 57.1504 111.25 57.4053 111.369ZM53.3462 107.949C53.5212 107.8 53.6238 107.898 53.6926 108.015C53.6011 108.055 53.4954 108.112 53.3597 108.199C53.3599 108.223 53.3541 108.253 53.3592 108.28C53.3423 108.16 53.3302 108.043 53.3462 107.949Z" fill="black"/>
<path d="M53.2236 108.87C53.1994 108.895 53.1887 108.923 53.1548 108.943C53.2137 108.984 53.2665 109.018 53.3168 109.046C53.3233 108.97 53.3262 108.896 53.3316 108.829C53.2915 108.843 53.2551 108.855 53.2236 108.87Z" fill="black"/>
<path d="M133.698 27.2771L133.683 27.3019C133.708 27.2816 133.736 27.2602 133.776 27.2504C133.747 27.2684 133.727 27.2674 133.698 27.2771Z" fill="black"/>
<path d="M75.6092 105.472L75.5383 105.325L75.4889 105.506L75.6092 105.472Z" fill="black"/>
<path d="M135.864 19.7495C135.918 19.7308 135.976 19.6988 136.023 19.6379C135.981 19.6444 135.925 19.6921 135.864 19.7495Z" fill="black"/>
<path d="M135.69 16.439C135.746 16.2738 135.815 16.1084 135.863 15.942C135.768 16.1609 135.713 16.3177 135.69 16.439Z" fill="black"/>
<path d="M135.627 13.8619C135.51 13.8498 135.426 13.8542 135.347 13.8574L135.344 13.8623L135.627 13.8619Z" fill="black"/>
<path d="M130.456 53.7722C130.443 53.8052 130.438 53.8395 130.442 53.8748C130.457 54.1426 130.481 53.9754 130.456 53.7722Z" fill="black"/>
<path d="M133.251 41.9511C133.328 42.1029 133.401 42.256 133.435 42.4022C133.543 42.211 133.607 42.0554 133.251 41.9511Z" fill="black"/>
<path d="M124.362 65.9644C124.361 65.9608 124.357 65.9621 124.355 65.9549C124.34 65.9801 124.327 66.0005 124.307 66.0233L124.362 65.9644Z" fill="black"/>
<path d="M133.262 42.9345C133.447 42.7656 133.474 42.5861 133.435 42.4012C133.343 42.5583 133.219 42.7388 133.262 42.9345Z" fill="black"/>
<path d="M132.99 3.02517L132.967 2.90111C132.929 2.91821 132.895 2.92221 132.867 2.92368L132.99 3.02517Z" fill="black"/>
<path d="M132.867 2.92605L132.745 2.82767C132.769 2.88383 132.793 2.93158 132.867 2.92605Z" fill="black"/>
<path d="M132.478 2.61587L132.74 2.82454C132.704 2.73193 132.677 2.60787 132.478 2.61587Z" fill="black"/>
<path d="M133.839 6.34583L134.075 6.31333C134.024 6.30659 133.946 6.31701 133.839 6.34583Z" fill="black"/>
<path d="M134.187 7.32144C134.173 7.06805 134.497 6.58066 134.264 6.2896L134.078 6.31321C134.453 6.36988 133.745 7.2111 134.187 7.32144Z" fill="black"/>
<path d="M132.411 12.1079L132.419 11.2615C132.208 11.4592 131.92 11.7119 131.783 11.3632C131.277 12.5308 132.28 11.0347 132.411 12.1079Z" fill="black"/>
<path d="M132.528 14.6696C132.344 14.2549 132.17 14.7362 132.027 14.7328C132.296 14.9723 132.364 15.0297 132.528 14.6696Z" fill="black"/>
<path d="M132.631 32.963L132.057 32.8366C132.089 33.1778 132.282 32.8683 132.631 32.963Z" fill="black"/>
<path d="M135.012 37.0171L135.437 36.7453L134.942 36.4825L135.012 37.0171Z" fill="black"/>
<path d="M130.498 38.2024L130.45 38.0406L130.52 38.6321L130.498 38.2024Z" fill="black"/>
<path d="M117.624 65.664L118.263 66.0149C118.297 65.7482 117.672 65.2264 117.624 65.664Z" fill="black"/>
<path d="M109.457 76.2451C109.094 76.0954 108.664 76.1949 108.75 76.6094C109 76.4307 109.411 76.4182 109.457 76.2451Z" fill="black"/>
<path d="M76.293 98.6733L76.4228 98.333L76.0624 98.7446L76.293 98.6733Z" fill="black"/>
<path d="M70.1516 133.092C70.1895 132.897 70.2057 132.452 70.1364 132.532L70.04 133.284L70.1516 133.092Z" fill="black"/>
<path d="M69.835 131.659C69.7371 132.019 69.6047 132.655 69.5995 133.355C69.7264 132.633 69.722 132.937 69.8633 132.081C69.9313 131.997 69.954 132.332 69.9241 132.609C69.9584 132.416 70.0079 132.782 70.0757 132.311C70.0372 131.718 69.9379 131.688 69.7977 132.16C69.7839 131.991 69.8219 131.796 69.835 131.659Z" fill="black"/>
<path d="M64.0055 129.867L64.0303 129.962C64.0238 129.908 64.0175 129.879 64.0055 129.867Z" fill="black"/>
<path d="M60.4231 128.912C60.4541 128.898 60.4776 128.825 60.4913 128.76C60.4581 128.804 60.4284 128.846 60.4231 128.912Z" fill="black"/>
<path d="M59.9467 127.986C59.9553 128.011 59.9639 128.024 59.9748 128.044C59.9741 127.973 59.9677 127.931 59.9467 127.986Z" fill="black"/>
<path d="M64.0047 129.866L63.9394 129.618C63.8971 129.858 63.963 129.803 64.0047 129.866Z" fill="black"/>
<path d="M68.8594 133.412C68.8841 133.379 68.9074 133.307 68.9293 133.22C68.9081 133.251 68.8892 133.278 68.8715 133.296C68.8695 133.336 68.8649 133.37 68.8594 133.412Z" fill="black"/>
<path d="M65.6866 129.456L65.7157 129.458C65.7329 129.368 65.7547 129.267 65.7766 129.155L65.6866 129.456Z" fill="black"/>
<path d="M66.9326 129.472C66.9057 129.441 66.831 130.081 66.7903 130.361C66.8336 130.1 66.8675 129.975 66.896 129.929C66.9105 129.807 66.9212 129.662 66.9326 129.472Z" fill="black"/>
<path d="M68.7925 130.787L68.8357 130.705C68.824 130.729 68.8076 130.75 68.7925 130.787Z" fill="black"/>
<path d="M64.8228 129.212C64.834 129.114 64.8379 129.031 64.8411 128.981C64.8321 129.062 64.8257 129.138 64.8228 129.212Z" fill="black"/>
<path d="M29.6358 123.703C29.6568 123.66 29.6685 123.636 29.6849 123.602C29.6472 123.655 29.6249 123.695 29.6358 123.703Z" fill="black"/>
<path d="M29.7289 120.195L29.7611 120.172C29.8166 120.064 29.872 119.957 29.9287 119.853L29.7289 120.195Z" fill="black"/>
<path d="M58.9768 126.966C58.9792 126.973 58.9792 126.973 58.9805 126.976C59.0226 126.914 59.0061 126.924 58.9768 126.966Z" fill="black"/>
<path d="M48.7589 125.029C48.7103 125.615 48.367 125.684 48.3615 126.348C48.4133 126.1 48.7954 125.428 48.7589 125.029Z" fill="black"/>
<path d="M68.8347 133.327C68.8165 133.333 68.7969 133.336 68.7822 133.329C68.802 133.351 68.8178 133.349 68.8347 133.327Z" fill="black"/>
<path d="M48.3569 126.347L48.3546 126.351L48.3563 126.415C48.3584 126.386 48.3571 126.371 48.3569 126.347Z" fill="black"/>
<path d="M56.3436 126.842C56.3254 126.953 56.3189 127.04 56.3113 127.123C56.3251 127.058 56.3377 126.977 56.3436 126.842Z" fill="black"/>
<path d="M58.0791 128.127L58.0473 128.035C58.0562 128.095 58.0671 128.115 58.0791 128.127Z" fill="black"/>
<path d="M55.1574 127.521C55.1427 127.467 55.1526 127.38 55.1003 127.458C55.0982 127.486 55.0984 127.51 55.0951 127.534C55.1261 127.453 55.1493 127.417 55.1574 127.521Z" fill="black"/>
<path d="M54.123 127.284C54.1187 127.329 54.1167 127.37 54.1123 127.416C54.1254 127.407 54.1386 127.399 54.1517 127.39L54.123 127.284Z" fill="black"/>
<path d="M32.8162 124.863C32.8689 124.687 32.9373 124.497 33.0081 124.315C32.8343 124.739 32.6184 124.818 32.8162 124.863Z" fill="black"/>
<path d="M68.8884 133.05C68.8671 133.211 68.8545 133.292 68.8331 133.324C68.8476 133.319 68.8596 133.307 68.8715 133.294C68.8826 133.198 68.8926 133.11 68.8884 133.05Z" fill="black"/>
<path d="M54.0151 132.473L53.8615 132.344C53.8985 132.416 53.9545 132.462 54.0151 132.473Z" fill="black"/>
<path d="M40.2009 127.781L40.137 127.839C40.1444 127.86 40.1633 127.846 40.2009 127.781Z" fill="black"/>
<path d="M53.3304 132.316C53.3488 132.087 53.3462 131.95 53.3343 131.857C53.3142 131.905 53.2989 131.942 53.2754 132.015L53.3304 132.316Z" fill="black"/>
<path d="M33.0076 124.309L33.006 124.313L33.0076 124.309Z" fill="black"/>
<path d="M31.315 125.21C31.4621 125.297 31.738 124.491 31.9719 124.067C32.2533 123.933 31.7918 124.67 31.6739 125.091C31.8838 124.938 32.2942 124.275 32.3662 124.343C32.3143 124.474 32.3089 124.529 32.2185 124.677C32.6166 124.12 32.5884 124.812 33.0769 124.107C33.057 124.178 33.0324 124.247 33.0088 124.308C33.1632 123.911 33.3346 123.517 33.466 123.241C33.5411 123.26 33.8109 122.811 33.6081 123.326C33.5728 123.293 33.4805 123.495 33.3901 123.643L33.5599 123.455C33.2978 124.208 33.3516 123.66 33.108 124.197C33.3516 124.024 33.7851 123.499 33.7961 123.754C33.4987 124.475 33.4432 123.88 33.299 124.576L33.2569 124.231C32.8782 125.408 33.1905 124.108 32.7677 125.357C32.8928 125.661 33.1713 125.109 33.3 125.412C33.5271 125.039 33.5443 124.819 33.7678 124.447C34.3929 123.868 33.2209 126.345 33.87 125.495C34.1398 125.046 34.5553 124.151 34.5099 124.7L34.1007 125.484C34.2812 125.656 34.7255 124.376 34.7112 125.015C34.5353 125.314 34.4268 125.21 34.4206 125.321C34.2897 126.021 34.7223 124.906 34.8315 124.953L34.5438 125.679C34.8216 125.664 35.29 125.252 35.5931 125.229C35.4912 125.438 35.3518 125.643 35.3179 125.885C35.7834 125.664 35.9574 126.263 36.0933 126.81L36.4658 126.238C36.4914 126.253 36.3999 126.539 36.32 126.648C36.3446 126.93 36.4878 126.254 36.6463 126.034C36.7332 126.016 36.5922 126.428 36.4695 126.6C36.8989 126.157 37.5302 125.701 37.4881 126.46L37.3725 126.629C37.4469 126.951 38.0772 125.424 38.0063 126.075L37.9311 126.174C38.2024 126.597 38.8376 126.189 38.7634 127.241C39.1655 126.355 38.9875 127.786 39.4924 126.529C39.4727 127.235 39.3248 127.44 39.4739 127.978C39.5328 128.067 39.892 127.232 40.0409 127.137L39.7961 127.799L40.1886 127.154L39.9695 127.973L40.1288 127.838C40.1065 127.785 40.1571 127.509 40.2338 127.321C40.4924 127.074 40.4269 127.917 40.3058 128.258L40.861 127.828C40.7585 128.094 40.6649 128.162 40.5565 128.317C40.9891 127.707 40.3376 129.031 40.7357 128.473C40.7655 128.314 40.8913 128.08 40.9432 127.949C40.8858 128.381 41.0799 128.452 41.2853 128.333L41.0964 128.782C41.322 128.991 41.7294 128.754 42.0218 128.863C41.9879 128.612 42.2895 127.821 42.4026 127.774L42.1932 128.493C42.4006 128.074 42.1965 128.197 42.4937 127.698C42.5746 127.816 42.2903 128.528 42.1474 128.735L42.3653 128.535C42.3009 128.747 42.2307 128.848 42.133 129.116C42.3404 128.697 42.1227 129.907 42.4635 129.172L42.399 129.384C42.6949 129.492 42.9106 129.297 43.1648 129.343C43.3751 128.733 43.4215 128.903 43.6585 128.429C43.7698 128.682 43.8115 129.225 44.0437 129.242C44.2949 128.986 44.2574 128.736 44.4426 128.393C44.2729 128.957 44.5038 128.97 44.2621 129.337C44.5496 129.326 44.6269 129.328 45.0959 128.977C45.1346 128.737 45.1239 128.624 45.2054 128.438C45.2929 128.363 45.265 128.716 45.171 128.983L45.1365 129.035C45.7589 128.308 45.4731 130.94 46.1271 129.858L46.0926 129.911L46.5793 129.387C46.6906 129.523 46.3693 129.787 46.3658 130.164C46.9726 129.321 46.8447 130.452 47.2985 129.904C47.0279 131.63 48.0717 130.001 48.054 131.147L48.1479 130.751C48.3292 130.385 48.1733 131.001 48.2022 131.108C48.2789 130.803 48.2228 130.733 48.3271 130.532C49.0747 130.238 49.4516 131.45 50.0054 131.978C50.2125 132.146 50.667 129.968 50.7158 130.99L50.4437 131.702C51.1384 130.95 51.4061 131.985 52.0535 131.342C51.985 131.507 51.9304 131.724 51.8856 131.711C51.8548 132.267 52.2431 131.822 52.3476 131.386C52.4075 131.454 52.2706 131.785 52.262 132.018C52.2859 132.357 52.6727 131.391 52.5983 131.938C52.5883 132.027 52.5312 132.107 52.5026 132.141C52.6282 131.896 52.7877 132.277 52.8697 131.647C52.977 131.982 53.2667 131.45 53.3203 131.851C53.5698 131.18 53.5441 132.255 53.7955 131.284C53.5529 132.293 53.9167 132.175 54.1346 131.717C54.0312 132.015 54.1621 132.055 54.0224 132.471C54.1518 132.483 54.3097 132.319 54.4036 131.794C54.3738 133.057 55.0802 130.918 54.877 132.5C55.3715 132.034 55.7904 131.737 56.1742 131.572C55.9558 132.581 55.7817 131.594 55.5796 132.662C55.9882 132.311 56.3449 131.481 56.6138 131.792C56.6673 131.948 56.4791 132.223 56.4155 132.39C56.8169 132.042 57.0169 132.599 57.4108 132.1C57.3912 132.196 57.3439 132.293 57.2963 132.366C57.3577 132.345 57.4006 132.54 57.4794 132.076L57.402 132.192C57.4399 131.504 57.8913 130.831 57.9653 130.482C57.6228 131.788 58.183 130.868 57.7183 132.511C57.7719 132.432 57.8604 132.22 57.9081 131.913C57.9466 132.012 57.9291 132.196 57.808 132.537C58.0573 132.322 58.0739 131.819 58.2544 131.862C58.2143 132.086 58.1608 132.165 58.0933 132.427C58.2644 132.008 58.439 131.588 58.5548 131.807C58.5198 131.94 58.5084 132.118 58.46 132.107C58.7365 132.088 59.1138 131.025 59.3264 131.501C59.0712 132.462 59.3708 131.841 59.2378 132.687L59.4386 132.461L59.4478 132.041C59.5811 132.076 59.8083 131.481 59.8777 131.776L59.7167 132.106L59.9994 131.989L59.9092 131.644C60.119 131.232 60.0738 130.573 60.213 130.836C60.1642 130.917 60.3449 130.867 60.3342 131.376C60.4477 131.119 60.5598 130.846 60.6249 131.07C60.6058 131.343 60.4527 132.002 60.4388 132.185C60.6193 131.488 60.7892 132.04 60.9946 131.298C60.9371 131.472 60.8664 131.912 60.8625 132.007L61.008 131.443C61.0425 131.638 61.0374 131.728 60.972 132.078C61.1437 132.213 61.0798 130.994 61.2321 131.495C61.2072 131.54 61.2009 131.627 61.1521 131.709C61.341 131.987 61.6446 131.414 61.8097 131.729C61.7433 132.593 61.5964 131.908 61.5577 132.64C61.8817 132.537 62.3315 131.719 62.59 131.953L62.5504 131.85C62.7598 130.65 62.681 132.476 62.9076 131.925C62.8601 132.01 62.7679 132.587 62.7944 132.453C62.9669 132.672 63.2452 132.213 63.5971 131.873L63.5205 132.179C63.6007 132.47 63.8076 132.379 63.9191 132.539C63.9959 132.233 64.0618 132.295 64.0778 131.837C64.2468 133.654 64.936 130.996 65.1055 132.498C65.0644 132.496 64.9726 132.758 65.0065 132.762L65.3352 132.508C65.3711 131.978 65.3332 132.185 65.3194 131.769C65.3913 131.462 65.505 131.229 65.5764 131.236C65.4044 131.57 65.4796 132.082 65.5055 132.38C65.5148 132.219 65.5554 132.044 65.567 131.878C65.6163 132.831 65.7124 130.822 65.853 131.477L65.8111 131.754C65.9065 131.62 66.0178 131.262 66.0936 131.353C66.0622 131.966 65.9778 131.628 65.9163 132.13C66.0418 132.107 66.275 131 66.3186 131.619C66.2501 131.784 66.175 131.778 66.1066 131.943C66.1476 132.672 66.1822 132.491 66.2571 132.615L66.2509 132.596L66.4187 132.943L66.3865 132.744C66.7021 131.172 66.7224 132.487 67.0301 131.467C66.7364 132.433 66.9391 132.036 66.8564 132.723C66.8886 132.922 66.945 133.146 66.9058 133.337C67.0563 132.788 67.0228 133.794 67.2396 132.992C67.2237 133.215 67.3403 133.026 67.2648 133.581C67.407 133.419 67.2719 133.191 67.309 132.911C67.5724 132.174 67.6761 133.872 68.0492 132.854C68.3243 132.444 68.4341 131.695 68.6844 131.342C68.7278 131.703 68.5547 132.151 68.5547 132.151C68.6462 132.487 68.7411 132.434 68.8752 132.19C68.836 132.381 68.8449 132.548 68.8595 132.802C68.9557 132.752 68.9856 131.994 69.0784 132.334C69.0386 132.582 68.9797 132.974 68.9157 133.223C69.0383 133.027 69.1803 132.618 69.3041 132.426C69.3055 132.818 69.1904 133.011 69.1312 133.262C69.2686 133.097 69.4832 132.934 69.5678 132.323L69.5064 132.098C69.5545 132.073 69.4911 132.629 69.4475 132.737C69.3035 133.21 69.3086 132.51 69.3209 132.287L69.4114 132.151C69.4323 130.838 69.0821 132.333 68.9266 132.245L69.0695 131.299L68.8439 132.075C68.8305 131.825 68.8495 131.293 68.94 131.157C68.8676 130.677 68.8115 131.488 68.7616 130.956C68.7571 130.873 68.7663 130.829 68.7817 130.791L68.649 131.063C68.6857 130.865 68.6883 130.391 68.7452 130.533C68.5995 129.969 68.3679 131.221 68.3558 130.494L68.3771 130.438C68.0755 130.736 68.2896 131.135 68.0111 131.934L68.0291 130.202L67.9369 130.896C67.9112 130.869 67.8599 130.814 67.8971 130.534C67.747 131.002 67.8844 130.838 67.7836 131.285C67.7072 130.64 67.3801 131.545 67.4573 130.431C67.3586 130.954 67.5461 130.853 67.3647 131.207C67.4411 130.008 67.178 131.392 67.106 130.831C67.2063 130.218 67.2907 130.557 67.2223 129.995C67.0439 131.026 67.0058 129.742 66.8843 129.929C66.7934 130.757 66.6228 130.25 66.4211 130.509C66.4631 130.232 66.1434 130.019 66.0182 129.702L66.0385 129.562C65.9138 130.397 65.7634 130.218 65.6212 130.38C65.684 129.882 65.7292 129.684 65.8201 129.467L65.7076 129.457C65.6498 129.724 65.599 129.858 65.5129 129.949L65.6144 129.328C65.4587 129.345 65.2226 130.033 65.0781 129.589C64.9956 130.171 65.0373 131.232 64.7823 131.595C64.8106 131.278 64.8717 130.739 64.943 130.618C64.9205 130.658 64.8489 130.872 64.8282 130.73L64.9765 130.21C64.9161 129.964 64.8757 130.645 64.8111 130.586C64.8671 130.139 64.7995 130.259 64.8503 129.902C64.8729 129.862 64.8884 130.095 64.9386 129.924C64.8664 129.832 64.8034 129.555 64.8145 129.211C64.7892 129.466 64.7394 129.815 64.6723 129.866C64.5153 129.88 64.6898 129.319 64.6306 129.077C64.5551 129.385 64.4998 129.049 64.411 129.718C64.3674 129.709 64.4005 129.394 64.4059 129.21C64.2903 129.497 64.0305 129.247 64.0256 129.972L64.0393 130.024C64.0358 130.037 64.0275 130.036 64.024 130.049C63.6762 130.682 63.541 129.597 63.2486 129.851L63.2801 129.626C63.0903 129.862 62.9211 129.734 62.742 130.2C62.6948 130.192 62.6931 129.776 62.7521 129.513C62.611 129.667 62.5604 129.919 62.4477 129.521C62.6229 129.149 62.4599 129.169 62.6094 129.251C62.4864 129.035 62.507 128.672 62.2554 129.256C62.396 128.69 62.2504 128.514 62.1529 128.677L62.1946 129.103C62.1023 129.175 62.04 129.112 61.9754 129.053L62.13 128.305C61.967 127.338 61.3361 129.778 61.3448 128.207C61.1782 128.721 61.4525 128.603 61.2821 129.211C61.1552 129.089 61.1829 127.984 61.1429 127.974C61.0213 127.527 60.7851 129.047 60.6309 128.728C60.6118 129.001 60.5197 129.72 60.3238 129.949C60.1969 129.827 60.339 128.796 60.4639 128.595C60.5024 128.578 60.5045 128.666 60.4872 128.757C60.5492 128.667 60.6303 128.562 60.6201 128.263L60.5575 128.527C60.5317 128.241 60.3371 128.239 60.4549 127.806C60.3061 128.044 60.3336 128.24 60.3895 128.391C60.2742 127.974 60.1085 128.338 59.9702 128.042C59.9742 128.194 59.9472 128.515 59.9169 128.509C59.704 128.126 59.7089 128.997 59.5031 129.08C59.4687 128.651 59.7112 128.111 59.4665 128.422C59.4043 128.124 59.5682 127.708 59.6531 127.497C59.392 127.982 59.4027 127.098 59.3243 126.987L59.4492 126.787C59.373 126.906 59.3318 126.892 59.2882 126.883L59.2416 127.428C59.2067 127.327 59.1618 127.314 59.2068 127.093C59.0893 127.432 59.0839 127.992 58.8902 128.45C58.8693 128.166 58.6257 128.703 58.731 127.988C58.9041 128.268 58.84 127.271 59.0422 127.19C58.9922 127.267 58.9486 127.258 58.9126 127.153C58.9214 127.074 58.9473 127.008 58.9699 126.968C58.8799 126.296 58.7275 127.755 58.513 127.695C58.6154 127.3 58.6045 126.928 58.5545 127.006C58.6393 127.029 58.4719 127.681 58.3334 127.971C58.2539 127.635 58.1371 128.176 58.0713 128.126L58.1273 128.289C58.0249 128.684 57.9613 128.617 57.8416 128.727C57.8917 128.414 57.9715 128.528 57.9628 128.386C57.717 129.068 57.8584 127.613 57.6199 128.059C57.6038 127.778 57.7612 127.307 57.7352 127.114C57.4656 127.599 57.6628 126.529 57.4056 126.92C57.3469 127.466 57.3832 127.336 57.1549 127.835L57.5191 127.52L57.1797 128.259C57.2657 128.286 57.433 127.962 57.4642 128.064C57.2895 128.484 57.3243 128.351 57.2792 128.807C57.3206 127.976 56.9462 129.225 56.9152 128.653L57.1862 127.327C57.1014 126.694 56.6785 127.931 56.4789 127.539L56.5163 127.789C56.3716 128.307 56.3354 127.827 56.2008 128.022C56.3028 127.579 56.2806 127.409 56.3043 127.126C56.2399 127.455 56.114 127.054 55.904 127.935L55.9088 127.327C55.7429 127.045 55.3878 128.537 55.2107 128.339C55.3777 127.873 55.3514 127.539 55.5671 127.226C55.4992 127.205 55.4546 127.111 55.3864 127.418C55.4053 127.132 55.0608 127.974 55.0891 127.54C55.0161 127.727 54.9046 128.19 54.8339 128.137C54.8463 128.044 54.8838 127.918 54.8838 127.918C54.834 128.137 54.6931 128.186 54.6533 128.693C54.748 127.266 54.0246 128.651 54.1116 127.424C53.9242 127.537 53.7077 127.636 53.5614 127.634C53.6012 127.503 53.6148 127.413 53.6286 127.465C53.5372 127.012 53.2093 128.701 53.1027 128.192C53.1644 127.455 53.3108 127.833 53.3055 127.548C53.6247 126.093 52.9963 127.683 53.0577 126.805L53.1125 126.73C53.1207 126.214 52.7089 127.212 52.5504 127.069C52.5504 127.069 52.5914 126.941 52.605 126.852C52.2954 127.561 51.9986 127.744 51.7742 127.902C51.973 127.352 51.9287 127.622 52.0438 127.041C51.9441 127.104 51.8341 127.97 51.6358 128.087C51.6616 127.763 51.62 127.466 51.7626 126.847L51.9185 126.854C52.0471 126.042 51.7213 126.833 51.6787 126.674L51.778 126.328C51.526 126.383 51.2966 127.254 51.0706 127.126L51.026 127.396C50.6644 128.223 51.0428 126.881 50.7418 127.485L50.9336 126.599C50.7917 126.785 50.401 127.364 50.2004 127.486C50.4662 126.861 50.7365 126.578 50.9529 126.22C50.8704 126.192 50.6457 126.209 50.4831 126.629C50.5416 126.552 50.6423 126.352 50.6389 126.494C50.3481 127.152 50.1166 127.454 49.9456 127.392C50.4402 125.706 49.6092 126.849 49.8544 125.495C49.38 126.03 49.3354 125.056 48.9595 125.056C48.7046 126.405 48.8448 125.063 48.4774 126.414C48.3693 126.475 48.3472 126.447 48.3645 126.356L48.3498 125.48C48.4074 125.072 48.5139 125.205 48.5955 124.902C48.4489 124.747 48.6863 124.309 48.6776 123.92C48.5592 124.41 48.4111 124.59 48.3667 124.379L48.3237 125.04C47.8624 125.684 48.4437 123.851 47.9835 124.487L48.1898 124.088C47.9841 124.3 47.7231 123.942 47.2668 124.976C47.2918 124.814 47.3727 124.438 47.459 124.36C47.2087 124.103 46.4251 125.29 46.3924 124.549L46.5174 124.231C46.4312 124.31 46.2247 124.813 46.2575 124.462C46.3046 124.329 46.3825 124.145 46.3641 124.115C46.2986 124.218 46.0309 124.637 46.0143 124.425L46.1982 124.079C46.0384 123.556 45.4539 124.828 45.1278 124.973C45.4434 124.011 45.3115 123.628 45.2479 123.432L45.2987 123.297C44.999 123.061 44.4526 123.892 44.002 124.156C44.1591 123.051 43.4781 123.492 43.3661 122.803C43.3547 122.993 43.0955 123.543 43.0044 123.618C42.9974 123.399 42.5643 124.206 42.8844 123.34L42.9053 123.366C43.1541 122.492 42.9202 122.669 42.8107 122.598L42.3807 123.732C42.6714 121.959 41.3409 124.034 41.7148 122.49C41.536 122.746 41.4426 122.709 41.2639 122.965L41.4959 122.36C41.3474 122.128 41.2715 122.013 40.965 122.061L41.1819 121.647C41.0529 121.554 40.3346 123.329 40.1834 123.313L40.4896 122.395C40.229 122.319 40.2916 121.42 39.7222 122.138C39.7789 122.009 39.8876 121.749 39.9418 121.731C39.8323 121.659 39.7297 120.939 39.2804 122.193C39.5975 121.389 39.0562 122.011 38.7752 122.31L39.0353 121.728C38.6169 122.437 38.5308 122.645 38.2821 122.791C38.2751 122.701 38.4416 122.304 38.4288 122.478C38.4301 122.118 38.1029 122.998 38.0786 122.623L38.2915 122.267C38.1805 122.167 38.1064 122.375 37.8567 122.788C37.6763 122.992 37.6693 122.537 37.8719 121.999C37.7191 122.318 37.4669 122.724 37.4554 122.538C37.5295 122.331 37.6082 122.219 37.65 122.164C37.5992 121.677 37.0425 122.713 37.1365 122.07C37.2143 121.874 37.2485 121.773 37.2587 121.709C37.4228 121.798 37.5468 121.889 37.5158 121.928C37.7413 121.385 37.6467 121.228 38.0675 120.525C37.7883 120.888 37.2259 121.696 37.1987 121.382C37.2163 121.327 37.2302 121.274 37.2607 121.187L37.2989 121.133C37.2922 121.067 37.2407 121.105 37.1786 121.183C37.1739 121.075 37.1756 120.998 37.1379 120.97C37.3122 120.514 37.084 120.662 37.0255 120.609C36.7776 121.204 36.7279 121.071 36.6013 121.596C36.6093 121.549 36.6442 121.532 36.7021 121.525C36.7213 121.51 36.7371 121.509 36.7586 121.477C36.7515 121.492 36.742 121.511 36.7313 121.527C36.7845 121.529 36.8498 121.542 36.9201 121.559C36.7367 121.836 36.5734 122.066 36.6351 121.705C36.438 122.06 36.2313 122.435 36.1292 122.619C36.3877 121.75 36.3984 121.229 36.5951 120.709C36.2422 120.952 36.0078 120.717 35.3874 121.767C35.2652 121.882 35.4577 121.42 35.5115 121.235C35.5951 121.138 35.6281 121.175 35.7172 121.023C35.4742 121.256 35.3143 120.98 34.9423 121.743C34.9455 121.329 35.3454 121.07 35.0823 121.104L35.2155 120.881C35.3707 119.465 33.6669 122.546 33.9369 120.759C33.9223 120.869 33.9203 120.923 33.8648 121.055C33.6768 120.121 32.4962 121.223 32.5193 119.881C32.4838 119.59 32.2334 120.073 31.9696 120.398L32.2388 119.76L31.7425 120.407C31.2729 120.828 32.1257 118.703 31.3716 119.565L31.1983 120.001C31.1427 119.874 30.7715 120.099 31.0291 119.627C30.9814 119.7 30.7819 120.047 30.8532 119.808L31.0119 119.483L30.5002 119.922C30.4366 119.596 31.174 118.651 30.9413 118.456C30.7813 118.532 30.1868 119.258 30.1142 119.493C30.1472 119.53 30.1118 119.744 29.953 120.07L29.7778 120.195C29.2784 121.139 28.7088 122.078 28.6041 122.854L29.057 122.351L28.877 122.837L28.7268 122.8C28.5829 123.274 28.8257 122.911 29.0143 122.672C28.9032 122.925 28.8411 123.108 28.8252 123.214L29.4394 122.381C29.2715 122.762 28.9991 123.086 28.9993 123.344C29.2855 122.955 29.346 122.473 29.6061 122.254C29.4657 122.727 29.2684 123.07 29.5431 122.741C29.432 122.993 29.3368 123.139 29.2471 123.231C29.4742 122.975 29.5223 123.209 29.8148 122.72C29.6295 123.297 30.152 122.713 29.6992 123.617C29.8314 123.414 30.1895 122.975 30.2813 122.972C29.6182 123.992 30.5239 123.171 29.9213 124.32C30.4947 123.391 30.4915 124.063 30.9281 123.606C30.8805 123.679 30.7865 123.828 30.7944 123.769C30.8549 123.898 30.7408 124.212 30.7175 124.426C31.1156 123.622 31.3586 123.506 31.6804 123.044C31.4325 123.885 31.1564 123.964 30.8353 124.733C31.1405 124.07 31.3591 124.177 31.5746 123.605C31.4408 124.132 31.5435 123.879 31.2772 124.573C31.77 123.562 31.4464 124.442 31.8176 123.853C31.7168 124.417 31.4078 124.823 31.7015 124.584C31.6165 124.913 31.315 125.21 31.315 125.21ZM35.6818 125.028C35.6794 125.033 35.6771 125.038 35.6771 125.038C35.6408 125.038 35.6093 125.041 35.5888 125.04C35.6093 125.041 35.636 125.036 35.6818 125.028ZM35.985 125.146C35.9593 125.107 35.9156 125.085 35.8646 125.066C35.9423 124.858 36.0406 124.65 36.065 124.674C35.9938 124.808 36.0158 124.954 35.985 125.146ZM37.1044 120.768C37.1872 120.703 37.1534 120.828 37.1062 120.949C37.0821 120.949 37.0446 120.958 36.9977 120.986C36.9883 121.006 36.9741 121.035 36.961 121.056C37.0119 120.945 37.0653 120.842 37.1044 120.768Z" fill="black"/>
<path d="M36.6913 121.509C36.6795 121.522 36.6665 121.542 36.6546 121.542C36.642 121.598 36.6304 121.646 36.6237 121.685C36.6553 121.626 36.6871 121.567 36.7187 121.508C36.708 121.512 36.6997 121.511 36.6913 121.509Z" fill="black"/>
<path d="M64.0351 129.978L64.0302 129.963C64.0316 129.991 64.0353 130.013 64.0333 130.054C64.033 130.018 64.0317 130.003 64.0351 129.978Z" fill="black"/>
<path d="M39.7477 127.952L39.8039 127.801L39.726 127.924L39.7477 127.952Z" fill="black"/>
<path d="M65.5199 132.389C65.5157 132.447 65.515 132.503 65.525 132.555C65.5306 132.513 65.5266 132.455 65.5199 132.389Z" fill="black"/>
<path d="M66.2726 132.613L66.3558 132.855C66.3255 132.72 66.2983 132.653 66.2726 132.613Z" fill="black"/>
<path d="M66.8335 132.998C66.8505 132.883 66.8616 132.799 66.8729 132.726L66.8717 132.722L66.8335 132.998Z" fill="black"/>
<path d="M57.3097 132.369C57.3024 132.371 57.2929 132.378 57.2821 132.394C57.2029 132.507 57.2499 132.466 57.3097 132.369Z" fill="black"/>
<path d="M60.3521 131.382C60.3049 131.491 60.2577 131.601 60.2125 131.669C60.2553 131.722 60.2905 131.743 60.3521 131.382Z" fill="black"/>
<path d="M54.0328 132.487L54.0383 132.476C54.03 132.479 54.023 132.472 54.0174 132.469L54.0328 132.487Z" fill="black"/>
<path d="M60.0845 131.637C60.1145 131.771 60.1597 131.751 60.2114 131.669C60.1787 131.621 60.1409 131.546 60.0845 131.637Z" fill="black"/>
<path d="M69.3883 133.516L69.4141 133.544C69.4161 133.503 69.4207 133.469 69.4265 133.438L69.3883 133.516Z" fill="black"/>
<path d="M69.4237 133.443L69.4632 133.369C69.4461 133.366 69.4352 133.37 69.4237 133.443Z" fill="black"/>
<path d="M69.5419 133.214L69.463 133.37C69.4847 133.374 69.5113 133.393 69.5419 133.214Z" fill="black"/>
<path d="M68.6215 133.152L68.592 133.387C68.6038 133.338 68.614 133.261 68.6215 133.152Z" fill="black"/>
<path d="M68.3785 133.2C68.4312 133.259 68.4805 133.708 68.5711 133.571L68.5923 133.386C68.5278 133.728 68.4667 132.81 68.3785 133.2Z" fill="black"/>
<path d="M67.6549 130.242L67.8344 130.447C67.8247 130.196 67.8104 129.861 67.9053 129.809C67.7275 129.046 67.9 130.368 67.6549 130.242Z" fill="black"/>
<path d="M67.0881 129.818C67.2058 129.713 67.1222 129.458 67.1426 129.318C67.0515 129.535 67.0302 129.591 67.0881 129.818Z" fill="black"/>
<path d="M62.746 129.285L62.842 128.705C62.7494 128.777 62.8103 128.931 62.746 129.285Z" fill="black"/>
<path d="M61.4632 132.155L61.4899 132.526L61.6083 131.999L61.4632 132.155Z" fill="black"/>
<path d="M61.6123 127.948L61.6615 127.866L61.4951 128.058L61.6123 127.948Z" fill="black"/>
<path d="M54.4364 126.769L54.2969 127.482C54.3793 127.368 54.5726 126.577 54.4364 126.769Z" fill="black"/>
<path d="M51.1969 126.73C51.2551 126.37 51.2272 126.124 51.0852 126.453C51.1403 126.519 51.1396 126.811 51.1969 126.73Z" fill="black"/>
<path d="M42.5396 122.808L42.6802 122.601L42.5002 122.753L42.5396 122.808Z" fill="black"/>
<path d="M40.0511 52.8585C39.8672 52.934 39.5002 53.1935 39.6286 53.2381L40.3063 52.8958L40.0511 52.8585Z" fill="black"/>
<path d="M39.2286 54.2245C39.602 54.1363 40.2326 53.9273 40.7873 53.498C40.1006 53.7668 40.3437 53.5821 39.5357 53.9209C39.4073 53.8763 39.6465 53.6325 39.8914 53.4997C39.7062 53.5715 39.9446 53.2673 39.5144 53.472C39.0901 53.9047 39.1569 54.0634 39.6642 53.9655C39.5411 54.0886 39.3524 54.1617 39.2286 54.2245Z" fill="black"/>
<path d="M42.052 63.9137L42.1191 63.8308C42.0764 63.8575 42.0553 63.8886 42.052 63.9137Z" fill="black"/>
<path d="M42.7062 70.0095C42.6831 69.9655 42.6078 69.9555 42.5374 69.9597C42.5926 69.9926 42.643 70.0232 42.7062 70.0095Z" fill="black"/>
<path d="M41.9701 71.1072C41.9937 71.0831 42.003 71.064 42.016 71.0436C41.9471 71.0753 41.9115 71.0994 41.9701 71.1072Z" fill="black"/>
<path d="M42.0515 63.9138L41.8677 64.1306C42.1051 64.0812 42.0174 64.0023 42.0515 63.9138Z" fill="black"/>
<path d="M41.5528 54.5473C41.5027 54.532 41.4235 54.5388 41.325 54.5605C41.369 54.5698 41.4105 54.5841 41.4448 54.6008C41.4836 54.5834 41.5152 54.5684 41.5528 54.5473Z" fill="black"/>
<path d="M40.6792 61.5291L40.6631 61.4823C40.5755 61.4964 40.4747 61.5191 40.3596 61.5467L40.6792 61.5291Z" fill="black"/>
<path d="M39.8539 59.6672C39.8471 59.7179 40.4473 59.4911 40.7144 59.3992C40.458 59.4753 40.3266 59.4922 40.2672 59.4723C40.1506 59.5205 40.0184 59.5823 39.8539 59.6672Z" fill="black"/>
<path d="M39.4883 56.2328L39.3825 56.2205C39.4153 56.2214 39.4519 56.2331 39.4883 56.2328Z" fill="black"/>
<path d="M40.991 62.9575C40.9007 62.9886 40.8225 63.0196 40.7769 63.0393C40.8539 63.0168 40.9249 62.9883 40.991 62.9575Z" fill="black"/>
<path d="M30.8954 120.133C30.8558 120.111 30.8304 120.096 30.7992 120.075C30.8462 120.118 30.8836 120.145 30.8954 120.133Z" fill="black"/>
<path d="M26.8854 120.621L26.8729 120.572C26.7695 120.507 26.6673 120.445 26.5675 120.378L26.8854 120.621Z" fill="black"/>
<path d="M41.2514 73.0078C41.2588 73.0052 41.2573 73.0016 41.2648 72.999C41.1898 72.9501 41.2039 72.9785 41.2514 73.0078Z" fill="black"/>
<path d="M39.3046 89.9746C39.9153 89.9541 39.9098 90.501 40.6151 90.4035C40.3635 90.3529 39.738 89.8496 39.3046 89.9746Z" fill="black"/>
<path d="M41.5097 54.6402C41.5302 54.665 41.5531 54.6851 41.5606 54.7184C41.5601 54.6707 41.5408 54.6494 41.5097 54.6402Z" fill="black"/>
<path d="M40.6165 90.4033L40.6213 90.4056L40.6892 90.3942C40.6582 90.3969 40.6427 90.3982 40.6165 90.4033Z" fill="black"/>
<path d="M41.5794 77.2841C41.6917 77.2818 41.7809 77.2713 41.8653 77.2584C41.7988 77.253 41.7168 77.2611 41.5794 77.2841Z" fill="black"/>
<path d="M42.5667 74.0801L42.484 74.1599C42.5402 74.1287 42.5622 74.1014 42.5667 74.0801Z" fill="black"/>
<path d="M42.3561 79.0323C42.3058 79.0693 42.2175 79.076 42.2959 79.1436C42.3265 79.1409 42.3489 79.1372 42.3747 79.1322C42.2896 79.1024 42.2517 79.0722 42.3561 79.0323Z" fill="black"/>
<path d="M42.1627 80.7855C42.2143 80.7838 42.2514 80.7751 42.2933 80.7687C42.2835 80.752 42.2748 80.7268 42.2651 80.7101L42.1627 80.7855Z" fill="black"/>
<path d="M33.4735 115.151C33.2962 115.095 33.1115 115.017 32.929 114.934C33.3404 115.14 33.3482 115.458 33.4735 115.151Z" fill="black"/>
<path d="M41.2362 54.7256C41.3815 54.6554 41.4622 54.6316 41.5094 54.6396C41.4923 54.6253 41.4682 54.6135 41.4476 54.6004C41.3574 54.6435 41.2792 54.6865 41.2362 54.7256Z" fill="black"/>
<path d="M47.4135 79.5796C47.371 79.6791 47.3369 79.7797 47.2932 79.8755C47.3649 79.8023 47.4038 79.692 47.4135 79.5796Z" fill="black"/>
<path d="M39.6872 103.339L39.727 103.432C39.748 103.413 39.7418 103.384 39.6872 103.339Z" fill="black"/>
<path d="M47.2768 80.7985C47.0434 80.8262 46.9046 80.87 46.8118 80.9181C46.8628 80.937 46.9018 80.956 46.9722 80.9723L47.2768 80.7985Z" fill="black"/>
<path d="M32.9251 114.934L32.9284 114.935L32.9251 114.934Z" fill="black"/>
<path d="M33.2725 117.375C33.431 117.142 32.6242 116.842 32.2346 116.544C32.1955 116.137 32.8515 116.727 33.2817 116.85C33.1931 116.557 32.6018 116.025 32.7106 115.907C32.8369 115.969 32.8973 115.968 33.0302 116.084C32.5609 115.554 33.3301 115.5 32.728 114.854C32.8043 114.877 32.8699 114.902 32.9282 114.931C32.5397 114.753 32.1641 114.543 31.9027 114.383C31.9523 114.269 31.5561 113.916 32.0575 114.152C32.005 114.21 32.1946 114.327 32.3275 114.443L32.1862 114.208C32.9348 114.504 32.3353 114.5 32.8445 114.794C32.748 114.443 32.3277 113.856 32.6196 113.8C33.3156 114.155 32.6152 114.327 33.3475 114.447L32.9377 114.56C34.1153 114.975 32.7722 114.677 34.0143 115.151C34.4108 114.917 33.8973 114.565 34.2902 114.333C33.9586 114.039 33.7206 114.04 33.389 113.746C32.9936 112.867 35.3077 114.33 34.6175 113.452C34.2213 113.099 33.3834 112.58 33.9852 112.578L34.7022 113.1C34.9688 112.806 33.7105 112.285 34.4253 112.225C34.691 112.457 34.5297 112.633 34.6469 112.633C35.3816 112.748 34.3045 112.226 34.4055 112.05L35.1061 112.395C35.2035 111.973 34.931 111.299 35.0291 110.833C35.2202 110.965 35.3948 111.155 35.656 111.175C35.5948 110.48 36.3395 110.143 37.0087 109.868L36.5179 109.358C36.5489 109.319 36.8302 109.42 36.9171 109.532C37.2439 109.46 36.5453 109.321 36.3643 109.1C36.3799 108.969 36.7815 109.138 36.9234 109.304C36.6043 108.694 36.3572 107.765 37.1811 107.74L37.3217 107.901C37.7093 107.748 36.2645 106.944 36.9548 106.977L37.0355 107.082C37.6121 106.609 37.412 105.664 38.5467 105.649C37.7246 105.128 39.2361 105.234 38.0455 104.593C38.8196 104.54 38.9873 104.745 39.6405 104.448C39.7615 104.341 38.9762 103.88 38.9269 103.655L39.5644 103.957L39.0042 103.41L39.8249 103.657L39.7355 103.421C39.6695 103.464 39.3861 103.416 39.2075 103.32C39.0322 102.939 39.9301 102.942 40.2639 103.089L39.9947 102.261C40.2462 102.392 40.2898 102.531 40.4194 102.684C39.9107 102.075 41.1218 102.939 40.6546 102.381C40.4912 102.352 40.284 102.185 40.1553 102.116C40.6088 102.154 40.7566 101.832 40.7003 101.516L41.1246 101.762C41.4326 101.377 41.3189 100.754 41.545 100.272C41.2582 100.354 40.5014 99.9763 40.4913 99.806L41.2007 100.047C40.8186 99.7702 40.8772 100.081 40.4405 99.67C40.5962 99.5234 41.2704 99.8853 41.4524 100.085L41.3078 99.7593C41.5188 99.8322 41.6057 99.9316 41.8595 100.058C41.4701 99.7842 42.7129 99.9666 42.0244 99.5166L42.2354 99.5895C42.4493 99.0955 42.3024 98.7742 42.4385 98.3596C41.8463 98.1068 42.0423 98.0071 41.6102 97.6911C41.9162 97.4766 42.5165 97.3305 42.6046 96.9526C42.4052 96.5848 42.1234 96.6817 41.8103 96.4298C42.3657 96.6225 42.4502 96.246 42.7726 96.5836C42.8465 96.1176 42.8841 95.9915 42.6317 95.2822C42.385 95.258 42.2619 95.2883 42.0893 95.186C42.0361 95.0548 42.4009 95.0464 42.6618 95.1586L42.7107 95.2064C42.0963 94.3025 44.8376 94.3529 43.8487 93.4526L43.8975 93.5005L43.4601 92.7822C43.6321 92.5775 43.8315 93.0625 44.2345 93.0005C43.4816 92.1403 44.6565 92.1601 44.1799 91.5037C45.9566 91.6518 44.4328 90.1961 45.6395 90.015L45.24 89.9344C44.892 89.6985 45.5085 89.8459 45.6263 89.7771C45.3186 89.7052 45.2351 89.8148 45.0429 89.6789C44.9669 89.0827 45.2422 88.5676 45.6312 88.0658C46.0154 87.5617 46.5278 87.0781 46.8174 86.546C47.0093 86.1525 44.8024 85.8697 45.8591 85.5584L46.5726 85.8584C46.2147 85.3471 46.3097 84.9305 46.4204 84.5124C46.5141 84.0922 46.6248 83.6741 46.3132 83.2035C46.4771 83.2804 46.6997 83.3169 46.6873 83.398C47.2604 83.3138 46.8187 82.7586 46.3745 82.6893C46.4471 82.5714 46.7808 82.7192 47.0209 82.6769C47.3689 82.549 46.3994 82.1391 46.9515 82.1228C47.0433 82.1195 47.1226 82.1973 47.1605 82.2369C46.91 82.0846 47.2918 81.7147 46.6528 81.7367C46.9921 81.4663 46.4461 81.1127 46.8453 80.9106C46.1601 80.6696 47.2501 80.4196 46.2576 80.2602C47.2825 80.3963 47.1607 79.8078 46.6846 79.5636C46.9925 79.6596 47.0202 79.4237 47.4492 79.5427C47.4518 79.3155 47.278 79.0924 46.7414 79.0832C48.0108 78.7674 45.8093 78.1836 47.413 78.0639C46.919 77.357 46.549 76.7286 46.3304 76.129C47.3642 76.1852 46.4118 76.788 47.4984 76.8099C47.0914 76.2145 46.2167 75.869 46.4832 75.3165C46.628 75.1737 46.93 75.4052 47.1057 75.4579C46.711 74.8865 47.1987 74.3548 46.6379 73.8527C46.7346 73.8518 46.8414 73.9039 46.9205 73.9575C46.8856 73.8564 47.0705 73.7241 46.5994 73.7408L46.7283 73.8338C46.0495 73.9988 45.2963 73.466 44.9385 73.4599C46.2873 73.5976 45.2696 72.966 46.9733 73.1836C46.8832 73.1217 46.6588 73.0453 46.3473 73.0678C46.4381 72.9678 46.6203 72.9333 46.9777 73.0204C46.712 72.6714 46.2241 72.8151 46.2185 72.4937C46.4456 72.4842 46.5391 72.5451 46.8065 72.5702C46.3555 72.4224 45.8997 72.2843 46.0746 72.0058C46.2112 72.0154 46.3873 71.9749 46.3905 72.0546C46.2941 71.5867 45.1617 71.338 45.5577 70.8096C46.553 70.8832 45.8699 70.6132 46.7222 70.5178L46.449 70.2643L46.042 70.4085C46.0396 70.1669 45.3891 70.0149 45.6454 69.7852L46.0179 69.9277L45.8046 69.496L45.51 69.7794C45.0428 69.5846 44.4371 69.9144 44.6368 69.5789C44.7316 69.6311 44.6212 69.3458 45.1089 69.1657C45.1089 69.1657 45.1088 69.1658 45.1124 69.1645C44.8288 69.0803 44.5295 68.9974 44.7233 68.7973C44.9908 68.7174 45.6664 68.7191 45.8459 68.6654C45.1218 68.6399 45.5858 68.1326 44.812 68.0919C44.9971 68.1131 45.4423 68.0567 45.529 68.0269L44.938 68.0121C45.1059 67.8775 45.1889 67.849 45.5486 67.814C45.5996 67.4691 44.4902 68.0734 44.8917 67.6198C44.9439 67.6423 45.0271 67.6137 45.1254 67.6647C45.3013 67.2364 44.6365 66.9722 44.8585 66.5725C45.6874 66.3153 45.12 66.8502 45.816 66.6065C45.5742 66.1037 44.6242 65.7155 44.7047 65.1866L44.6333 65.2961C43.4279 65.4808 45.1383 64.8028 44.5244 64.6748C44.6239 64.7173 45.2004 64.6077 45.064 64.6223C45.1774 64.2357 44.6191 63.9875 44.1292 63.5742L44.4482 63.5613C44.6667 63.2921 44.4571 63.0005 44.532 62.7484C44.2107 62.766 44.2287 62.6305 43.8113 62.8268C44.5743 62.261 44.2516 62.0043 43.9037 61.7806C43.7274 61.6675 43.5463 61.5641 43.4857 61.4233C43.4179 61.285 43.4669 61.1106 43.7689 60.849C43.7961 60.9164 44.0861 60.9257 44.0675 60.8715L43.6225 60.471C43.134 60.6836 43.3414 60.6405 42.9848 60.8724C42.6674 60.913 42.39 60.859 42.3454 60.741C42.7512 60.8397 43.1498 60.4599 43.3945 60.2666C43.2489 60.3369 43.0679 60.3629 42.9126 60.4284C43.7119 59.8623 41.8935 60.743 42.3702 60.1908L42.639 60.1145C42.4617 60.0341 42.0738 60.0464 42.1024 59.8829C42.6544 59.608 42.4171 59.9161 42.8928 59.7483C42.7882 59.562 41.6785 59.7784 42.1749 59.3892C42.3709 59.4066 42.4119 59.5258 42.6006 59.5457C43.2052 59.0951 43.0257 59.1366 43.0723 58.9549L43.0628 58.9744L43.2276 58.5256L43.0828 58.6805C41.5021 59.043 42.604 58.2998 41.504 58.3916C42.5461 58.3076 42.0547 58.2181 42.7 57.9676C42.8434 57.8091 42.9839 57.5951 43.1793 57.5521C42.6011 57.6218 43.4709 57.1081 42.6298 57.224C42.8294 57.1229 42.5772 57.0481 43.1034 56.8507C42.8568 56.7214 42.772 57.0618 42.5071 57.1611C42.0963 57.1652 42.2277 56.8895 42.3023 56.6133C42.3805 56.3358 42.4151 56.049 41.8388 56.0656C41.2643 55.8876 40.56 56.1664 40.063 56.0142C40.3225 55.7349 40.8288 55.7263 40.8288 55.7263C41.0273 55.3872 40.9029 55.2723 40.587 55.2235C40.7762 55.1624 40.9032 55.05 41.09 54.8766C40.956 54.7691 40.3256 55.1801 40.5048 54.8436C40.7395 54.7507 41.1101 54.5948 41.3706 54.5414C41.0945 54.4789 40.6382 54.527 40.3657 54.4632C40.6751 54.2233 40.9365 54.2665 41.1921 54.1988C40.9264 54.0962 40.5956 53.8869 40.0302 54.1462L39.9115 54.377C39.8458 54.3269 40.3472 54.0694 40.4741 54.0621C40.9868 53.9785 40.4255 54.4022 40.2369 54.5237L40.0444 54.4809C38.9826 55.2587 40.5022 54.8364 40.5787 55.1172L39.6868 55.485L40.5181 55.3402C40.3264 55.5113 39.8773 55.8033 39.6943 55.7532C39.3659 56.1492 40.0701 55.741 39.6812 56.1376C39.6153 56.1926 39.5719 56.2076 39.532 56.2092L39.866 56.2397C39.6732 56.302 39.2844 56.5814 39.3565 56.4152C39.015 56.9611 40.2304 56.5588 39.6426 56.9996L39.5787 57.0014C40.0731 57.2636 40.2224 56.7232 41.1173 56.6696L39.6719 57.6362L40.3205 57.3724C40.3186 57.4256 40.315 57.5319 40.0526 57.6384C40.5645 57.5875 40.3132 57.48 40.7665 57.3764C40.3023 57.8475 41.3028 57.8304 40.306 58.3394C40.823 58.1977 40.5948 57.9691 41.0281 58.0422C39.9617 58.5953 41.3271 58.2181 40.9046 58.6344C40.3107 58.8227 40.5361 58.5147 40.1099 58.9201C41.1184 58.6213 40.0564 59.3749 40.3062 59.4547C41.0801 59.1437 40.7759 59.6688 41.1485 59.8356C40.8859 59.9179 40.9063 60.5171 40.7128 60.8707L40.5779 60.9131C41.3852 60.6755 41.3291 60.9939 41.5613 61.1282C41.0818 61.2852 40.8829 61.3173 40.6348 61.2895L40.6993 61.4653C40.9696 61.4168 41.1231 61.4286 41.2569 61.5119L40.6445 61.6701C40.7531 61.8914 41.5279 61.9116 41.2144 62.3509C41.7797 62.1967 42.6995 61.6051 43.1731 61.8301C42.8744 61.9369 42.3601 62.11 42.2097 62.0607C42.2594 62.0759 42.4892 62.0857 42.3777 62.1847L41.8282 62.2083C41.6466 62.4204 42.2771 62.1507 42.2615 62.2814C41.8289 62.4101 41.9756 62.4606 41.6296 62.5474C41.5799 62.5322 41.7793 62.3949 41.5993 62.4003C41.5585 62.5517 41.348 62.7859 41.0316 62.9353C41.2737 62.8519 41.6148 62.7627 41.6977 62.8392C41.7991 63.0751 41.1975 63.0761 41.017 63.2797C41.3346 63.2512 41.0662 63.4931 41.7194 63.3127C41.7358 63.3838 41.4347 63.4835 41.2663 63.5577C41.5894 63.6041 41.5147 64.1147 42.1713 63.7916L42.2083 63.7466C42.2252 63.7489 42.2276 63.756 42.241 63.7595C43.0253 64.0068 42.0779 64.7291 42.4595 65.0746L42.2375 65.1228C42.5464 65.3155 42.5097 65.6433 43.0265 65.724C43.0442 65.7988 42.6629 65.9826 42.3912 66.0035C42.5982 66.1585 42.8602 66.1329 42.5361 66.4829C42.1156 66.365 42.2014 66.6144 42.2205 66.3411C42.0686 66.6278 41.7218 66.7472 42.3771 66.9014C41.7912 66.9133 41.689 67.2151 41.8796 67.299L42.2603 67.0549C42.3654 67.1723 42.3351 67.2958 42.3061 67.423L41.543 67.4837C41.1256 67.8093 41.5549 67.9645 41.9021 68.1279C42.2494 68.2912 42.5254 68.4589 41.7706 68.7551C42.3138 68.8186 42.1119 68.4315 42.7455 68.464C42.6706 68.7161 41.6109 69.1012 41.6176 69.1676C41.2333 69.5303 42.7576 69.3328 42.5087 69.7014C42.775 69.6299 43.4917 69.5043 43.7743 69.7384C43.7007 69.9941 42.6739 70.1456 42.437 70.0211C42.4063 69.967 42.4905 69.9299 42.581 69.923C42.474 69.8588 42.3463 69.7694 42.0659 69.8942L42.3414 69.8964C42.0793 70.0391 42.1442 70.3563 41.6919 70.3221C41.9701 70.4728 42.1441 70.3563 42.272 70.2112C41.9139 70.5447 42.3153 70.6773 42.066 71.0096C42.2116 70.9514 42.5299 70.8782 42.5268 70.9277C42.2198 71.4093 43.0553 71.0893 43.1924 71.3937C42.7896 71.597 42.1992 71.3963 42.5658 71.6863C42.2971 71.892 41.8462 71.7684 41.6196 71.709C42.161 71.955 41.3085 72.2485 41.2218 72.4077L40.9932 72.2722C41.1294 72.3506 41.1301 72.4231 41.1345 72.4944L41.6711 72.3864C41.5814 72.4779 41.5858 72.5491 41.3587 72.5586C41.7195 72.6324 42.2591 72.4507 42.7586 72.6101C42.4951 72.7372 43.064 72.9575 42.3469 73.0226C42.5861 72.6492 41.6248 73.0853 41.5009 72.7844C41.5885 72.8391 41.5856 72.9129 41.491 73.002C41.4114 73.0173 41.3424 72.9926 41.2987 72.9713C40.6593 73.3329 42.1156 73.1023 42.1035 73.4661C41.6947 73.4291 41.3335 73.5655 41.4211 73.6202C41.4281 73.4763 42.0993 73.5363 42.4112 73.6673C42.0969 73.9049 42.6506 73.9162 42.6168 74.041L42.7616 73.8982C43.1681 73.9401 43.116 74.0591 43.2493 74.2234C42.9317 74.2398 43.0279 74.0733 42.8907 74.1326C43.6079 74.3141 42.1565 74.5472 42.6424 74.7961C42.3668 74.9113 41.8763 74.8013 41.6924 74.901C42.2112 75.1871 41.126 75.193 41.5519 75.4909C42.1011 75.419 41.9691 75.3998 42.4933 75.6194L42.1247 75.1239L42.9085 75.4521C42.9215 75.3022 42.5755 75.1303 42.6714 75.0448C43.1128 75.1999 42.9784 75.1856 43.4322 75.1183C42.605 75.3101 43.8955 75.5367 43.3346 75.7622L41.982 75.7187C41.3665 76.0438 42.6566 76.3634 42.2996 76.8056L42.54 76.6702C43.075 76.7568 42.6069 76.9584 42.8187 77.1158C42.3688 77.0768 42.1956 77.1606 41.9084 77.207C42.2445 77.2206 41.8511 77.5339 42.7512 77.6362L42.1402 77.7981C41.8668 78.1428 43.3937 78.3162 43.211 78.666C42.7274 78.5173 42.3975 78.6511 42.0638 78.3862C42.0517 78.5035 41.9596 78.5999 42.2729 78.6294C41.9845 78.6721 42.8532 79.0116 42.4176 79.0848C42.6117 79.1554 43.0811 79.216 43.0328 79.3458C42.941 79.3491 42.8103 79.3213 42.8103 79.3213C43.0316 79.3421 43.0868 79.5616 43.601 79.4937C42.153 79.7134 43.5788 80.544 42.3334 80.7182C42.4533 80.9962 42.5593 81.3275 42.5617 81.5692C42.4284 81.5343 42.3402 81.5363 42.3918 81.4983C41.9243 81.7603 43.6452 81.8872 43.1189 82.1897C42.3656 82.2672 42.7599 81.9334 42.467 82.01C40.9873 81.8324 42.5937 82.4837 41.6981 82.594L41.6199 82.5199C41.0892 82.6218 42.1004 83.0698 41.9462 83.3613C41.9462 83.3613 41.82 83.3239 41.7257 83.32C42.447 83.6658 42.605 84.1126 42.7509 84.4543C42.1991 84.2483 42.477 84.2576 41.8843 84.2031C41.9402 84.3536 42.8272 84.3472 42.9341 84.6458C42.6032 84.6709 42.2902 84.807 41.6657 84.7068L41.6826 84.4503C40.8544 84.4162 41.6446 84.7746 41.4789 84.8802L41.1325 84.7893C41.169 85.189 42.0495 85.3869 41.8999 85.786L42.172 85.8014C42.9968 86.2247 41.6411 85.8792 42.2333 86.2492L41.3327 86.1106C41.5086 86.3047 42.0564 86.8274 42.1549 87.137C41.5416 86.8228 41.2828 86.435 40.9405 86.1568C40.8972 86.301 40.8837 86.6613 41.2976 86.8421C41.2255 86.7619 41.0286 86.6357 41.1783 86.6125C41.827 86.9589 42.108 87.2824 42.0178 87.5721C40.3332 87.0812 41.4056 88.2235 40.0228 88.0692C40.5032 88.7484 39.4711 88.9906 39.4058 89.5991C40.772 89.7875 39.3955 89.7805 40.7442 90.1527C40.7845 90.3167 40.7475 90.3618 40.6579 90.3482L39.7241 90.512C39.3033 90.4872 39.4707 90.2921 39.1666 90.2069C38.9697 90.4687 38.5581 90.1537 38.1408 90.2327C38.6326 90.3463 38.7928 90.5539 38.5546 90.6602L39.2443 90.6207C39.821 91.2628 38.0092 90.6136 38.5787 91.2581L38.2026 90.9875C38.3855 91.2842 37.9431 91.7598 38.9253 92.335C38.7583 92.3198 38.3806 92.2437 38.3165 92.1162C37.9801 92.5594 39.0421 93.6486 38.2522 93.8075L37.9437 93.651C38.0042 93.7797 38.49 94.0409 38.1166 94.0361C37.9879 93.9794 37.8118 93.8783 37.7759 93.9149C37.8674 94.0047 38.242 94.3768 38.0057 94.4299L37.6879 94.1878C37.0808 94.514 38.2726 95.2757 38.3296 95.7815C37.3894 95.4101 36.9425 95.673 36.7068 95.7986L36.5769 95.7383C36.2279 96.2505 36.9508 97.0119 37.0941 97.6982C35.9596 97.5957 36.1897 98.6158 35.4008 98.8834C35.6013 98.879 36.111 99.2209 36.1642 99.3521C35.9229 99.3907 36.6514 99.9805 35.8172 99.5766L35.853 99.54C34.9825 99.2537 35.0997 99.6054 34.9806 99.7878L36.0638 100.328C34.2282 100.091 36.0133 101.942 34.4601 101.539C34.6764 101.792 34.5995 101.944 34.8074 102.196L34.2257 101.903C33.908 102.166 33.7546 102.295 33.6869 102.779L33.3117 102.488C33.1592 102.703 34.8372 103.62 34.7658 103.859L33.8666 103.49C33.6799 103.91 32.6999 103.928 33.2771 104.735C33.1555 104.664 32.9125 104.521 32.9116 104.437C32.7877 104.617 31.9467 104.874 33.1618 105.422C32.3905 105.024 32.873 105.804 33.0873 106.203L32.5402 105.87C33.1597 106.437 33.3554 106.547 33.4134 106.915C33.3072 106.936 32.933 106.729 33.1215 106.725C32.7171 106.771 33.5694 107.169 33.1352 107.258L32.8266 106.972C32.669 107.159 32.8729 107.247 33.2292 107.589C33.3815 107.844 32.8722 107.914 32.3465 107.666C32.6409 107.864 32.9923 108.204 32.7776 108.25C32.5773 108.161 32.4833 108.052 32.4356 107.996C31.863 108.14 32.7995 108.877 32.1149 108.813C31.9278 108.716 31.826 108.678 31.7582 108.669C31.9272 108.397 32.0821 108.19 32.1104 108.237C31.5928 107.954 31.3782 108.129 30.7647 107.556C31.0538 107.95 31.7284 108.724 31.3655 108.808C31.311 108.791 31.2565 108.773 31.1715 108.738L31.1251 108.685C31.048 108.708 31.068 108.778 31.1317 108.869C31.0099 108.891 30.9206 108.901 30.8777 108.964C30.4369 108.752 30.5056 109.092 30.4232 109.194C30.9894 109.5 30.8199 109.594 31.3602 109.72C31.3093 109.713 31.3039 109.662 31.3224 109.575C31.3137 109.55 31.317 109.524 31.2901 109.493C31.3023 109.505 31.3181 109.516 31.3352 109.53C31.3598 109.449 31.4011 109.346 31.4507 109.232C31.6888 109.477 31.8772 109.707 31.496 109.657C31.8236 109.916 32.1598 110.188 32.3146 110.321C31.4453 110.038 30.8575 110.091 30.3501 109.861C30.4712 110.377 30.1005 110.78 31.0318 111.595C31.1121 111.769 30.6673 111.534 30.4819 111.477C30.4094 111.361 30.4621 111.302 30.3292 111.186C30.4897 111.535 30.1072 111.82 30.8139 112.288C30.3431 112.341 30.2164 111.762 30.1455 112.167L29.9481 111.992C28.3974 111.973 31.1947 114.146 29.267 114.005C29.3891 114.007 29.4458 114.008 29.5721 114.07C28.4236 114.514 29.1806 116.149 27.6491 116.349C27.2985 116.457 27.7497 116.758 28.0166 117.111L27.3913 116.809L27.9343 117.459C28.2295 118.105 26.1225 117.185 26.8103 118.185L27.2447 118.367C27.0766 118.477 27.1845 119.002 26.738 118.703C26.8027 118.762 27.124 119.003 26.8805 118.941L26.5671 118.758L26.8701 119.462C26.4656 119.625 25.6659 118.676 25.3423 119.075C25.3663 119.309 25.9709 120.079 26.2144 120.14C26.2683 120.085 26.5089 120.092 26.8212 120.271L26.8938 120.517C27.795 121.091 28.6619 121.767 29.5177 121.788L29.1084 121.197L29.6009 121.383L29.5014 121.611C29.9909 121.742 29.669 121.44 29.4661 121.203C29.7138 121.324 29.9018 121.389 30.019 121.389L29.2923 120.616C29.6675 120.802 29.9381 121.154 30.2325 121.105C29.8942 120.745 29.3611 120.734 29.2114 120.381C29.6996 120.508 30.0163 120.747 29.7481 120.391C29.9959 120.511 30.1264 120.632 30.1988 120.749C29.9917 120.452 30.2805 120.341 29.8311 119.986C30.4226 120.166 29.9555 119.479 30.8127 120.008C30.631 119.844 30.2638 119.377 30.2975 119.24C31.2108 120.073 30.6199 118.838 31.7013 119.561C30.8617 118.847 31.6254 118.742 31.274 118.156C31.3387 118.214 31.4692 118.335 31.4076 118.332C31.5793 118.22 31.8886 118.344 32.123 118.344C31.3642 117.866 31.3319 117.513 30.9314 117.102C31.7919 117.347 31.7717 117.758 32.5221 118.118C31.8889 117.758 32.097 117.412 31.5363 117.168C32.085 117.294 31.8372 117.174 32.5229 117.475C31.5696 116.878 32.4422 117.24 31.9191 116.766C32.5239 116.832 32.859 117.242 32.7028 116.835C33.0533 116.961 33.2725 117.375 33.2725 117.375ZM34.8372 110.733C34.842 110.736 34.8469 110.738 34.8469 110.738C34.8342 110.795 34.8225 110.843 34.8131 110.875C34.8201 110.848 34.8294 110.805 34.8372 110.733ZM35.0946 110.249C35.0419 110.295 34.9979 110.367 34.9564 110.446C34.7513 110.355 34.5614 110.226 34.5997 110.184C34.7143 110.282 34.8902 110.23 35.0946 110.249ZM30.6324 109.085C30.5949 108.965 30.7174 109.003 30.8412 109.058C30.8307 109.098 30.8288 109.151 30.838 109.225C30.8551 109.239 30.8819 109.258 30.9026 109.271C30.7956 109.207 30.697 109.144 30.6324 109.085Z" fill="black"/>
<path d="M31.2941 109.634C31.3003 109.652 31.3187 109.67 31.3165 109.686C31.3734 109.699 31.4254 109.71 31.4665 109.712C31.4117 109.67 31.3558 109.624 31.3058 109.585C31.3036 109.602 31.3012 109.619 31.2941 109.634Z" fill="black"/>
<path d="M42.1305 63.8143L42.1199 63.8299C42.1424 63.8142 42.165 63.7984 42.2007 63.7861C42.1734 63.7995 42.1542 63.8021 42.1305 63.8143Z" fill="black"/>
<path d="M39.7066 104.033L39.559 103.964L39.6674 104.071L39.7066 104.033Z" fill="black"/>
<path d="M43.3514 60.2934C43.4025 60.2678 43.4525 60.2386 43.4915 60.2012C43.4522 60.2147 43.4048 60.2511 43.3514 60.2934Z" fill="black"/>
<path d="M43.0293 58.9824L43.1669 58.7188C43.0792 58.8429 43.0458 58.9237 43.0293 58.9824Z" fill="black"/>
<path d="M42.919 57.9002C42.8095 57.9339 42.7299 57.9613 42.6554 57.991C42.6554 57.991 42.6554 57.991 42.6531 57.9958L42.919 57.9002Z" fill="black"/>
<path d="M46.8836 73.9674C46.8885 73.9817 46.8971 73.9949 46.9128 74.0055C47.0373 74.0991 46.9874 74.0359 46.8836 73.9674Z" fill="black"/>
<path d="M45.0792 69.1852C45.201 69.2236 45.3179 69.2598 45.3977 69.3047C45.4353 69.2153 45.4443 69.1479 45.0792 69.1852Z" fill="black"/>
<path d="M47.4267 79.5524C47.4221 79.5502 47.422 79.5502 47.4152 79.5526C47.4153 79.5639 47.4143 79.5719 47.411 79.5844L47.4267 79.5524Z" fill="black"/>
<path d="M45.4126 69.5299C45.5336 69.4311 45.4963 69.3584 45.3995 69.302C45.3649 69.3792 45.3059 69.4687 45.4126 69.5299Z" fill="black"/>
<path d="M41.1227 53.7098L41.1198 53.6556C41.0835 53.676 41.0543 53.6939 41.0296 53.7024L41.1227 53.7098Z" fill="black"/>
<path d="M41.0281 53.7018L40.9337 53.6943C40.9482 53.7133 40.9615 53.7287 41.0281 53.7018Z" fill="black"/>
<path d="M40.7325 53.6741L40.9333 53.6939C40.9124 53.6566 40.9046 53.5987 40.7325 53.6741Z" fill="black"/>
<path d="M41.5583 55.063L41.771 54.9656C41.7241 54.9817 41.6544 55.0138 41.5583 55.063Z" fill="black"/>
<path d="M41.8073 55.4096C41.8086 55.2957 42.1346 54.9486 41.9403 54.89L41.7715 54.9643C42.1083 54.8605 41.416 55.5079 41.8073 55.4096Z" fill="black"/>
<path d="M39.9665 58.1896C39.9834 58.0626 39.9895 57.9395 39.9955 57.8163C39.7955 57.974 39.527 58.1794 39.4064 58.0756C38.9169 58.7529 39.8838 57.7618 39.9665 58.1896Z" fill="black"/>
<path d="M40.0333 59.2577C39.8603 59.1431 39.7017 59.4002 39.5678 59.4464C39.8185 59.4572 39.8803 59.4602 40.0333 59.2577Z" fill="black"/>
<path d="M42.1461 66.1445L41.5647 66.2434C41.676 66.355 41.7882 66.1989 42.1461 66.1445Z" fill="black"/>
<path d="M45.3719 67.018L45.709 66.8209L45.1703 66.8444L45.3719 67.018Z" fill="black"/>
<path d="M41.3812 68.4811L41.289 68.4362L41.5336 68.6185L41.3812 68.4811Z" fill="black"/>
<path d="M41.6356 80.4052L42.3581 80.4512C42.2375 80.3474 41.4347 80.2322 41.6356 80.4052Z" fill="black"/>
<path d="M41.4712 85.699C41.1077 85.6784 40.8468 85.7681 41.1718 85.9356C41.2544 85.8343 41.5519 85.7805 41.4712 85.699Z" fill="black"/>
<path d="M35.0904 100.247L34.9169 100.049L35.0126 100.314L35.0904 100.247Z" fill="black"/>
</svg>
