<svg width="119" height="157" viewBox="0 0 119 157" fill="none" xmlns="http://www.w3.org/2000/svg">
<path d="M0.8871 21.0736C13.8816 40.7627 27.8198 59.8426 42.8637 78.0213C56.0529 93.9575 69.701 110.285 86.2827 122.837C95.0768 129.495 104.744 134.976 115.421 137.927C117.413 138.479 117.973 135.455 116.078 134.837C97.482 128.748 82.1082 116.464 68.5741 102.673C52.9929 86.7962 38.768 69.4752 25.1541 51.9009C17.1633 41.5865 9.52977 31.015 2.21048 20.2142C1.641 19.3705 0.323552 20.2224 0.8871 21.0736Z" fill="black"/>
<path d="M117.688 135.016C116.145 133.321 114.076 132.047 112.428 130.428C110.689 128.717 109.188 126.892 107.933 124.794C107.201 123.568 105.415 124.764 106.087 125.993C107.336 128.281 108.889 130.479 110.788 132.276C112.483 133.879 114.785 135.698 117.135 136.111C117.798 136.23 118.104 135.474 117.688 135.016Z" fill="black"/>
<path d="M115.605 136.763C112.639 137.508 109.874 138.398 106.768 138.315C103.747 138.234 100.798 137.248 98.246 135.652C96.7455 134.713 95.0149 137.212 96.4858 138.25C99.5095 140.379 102.984 141.473 106.694 141.401C110.059 141.337 113.951 140.297 116.155 137.609C116.488 137.199 116.105 136.636 115.605 136.763Z" fill="black"/>
</svg>
